<?xml version="1.0" encoding="utf-8"?>
<!-- Generator: Adobe Illustrator 18.1.1, SVG Export Plug-In . SVG Version: 6.00 Build 0)  -->
<!DOCTYPE svg PUBLIC "-//W3C//DTD SVG 1.1//EN" "http://www.w3.org/Graphics/SVG/1.1/DTD/svg11.dtd">
<svg version="1.1" id="Layer_1" xmlns="http://www.w3.org/2000/svg" xmlns:xlink="http://www.w3.org/1999/xlink" x="0px" y="0px"
	 width="684.9px" height="127.2px" viewBox="-190.5 -13 684.9 127.2" enable-background="new -190.5 -13 684.9 127.2"
	 xml:space="preserve">
<g>
	<g>
		<defs>
			<rect id="SVGID_1_" x="-119.3" y="0.2" width="542.6" height="100.8"/>
		</defs>
		<clipPath id="SVGID_2_">
			<use xlink:href="#SVGID_1_"  overflow="visible"/>
		</clipPath>
		<path clip-path="url(#SVGID_2_)" fill="#00783E" d="M-84,23.7c0-1.1,0-2.2-0.2-3.2c-0.2-1.1-0.4-1.9-0.9-2.6
			c-0.4-0.6-1.1-1.3-1.9-1.7c-0.6-0.6-1.7-0.9-3.2-0.9h-7.3c-0.4,0-1.1,0.2-1.3,0.6c-0.2,0.4-0.4,0.9-0.4,1.3v69.3
			c0,1.3,0.6,1.9,1.9,1.9h7.3c1.5,0,2.6-0.2,3.4-0.6c0.9-0.4,1.5-1.1,1.9-1.9c0.4-0.6,0.6-1.7,0.9-2.6c0.2-1.1,0.2-1.9,0.2-3V23.7
			H-84z M-90.3,2.6c7.5,0,13.1,1.9,16.4,5.8c3.4,3.9,5.2,9,5.2,15.5v55.8c0,6.5-1.7,11.6-5.2,15.5c-3.4,3.9-8.8,5.8-16.4,5.8h-29.1
			v-5.2c0-1.9,0.2-3.4,0.9-4.3c0.4-1.1,1.3-1.7,2.2-2.2c1.1-0.4,1.5-1.3,1.5-2.8V17.2c0-1.5-0.6-2.4-1.7-3c-1.9-0.9-2.8-2.8-2.8-6
			V2.6H-90.3z"/>
	</g>
	<g>
		<defs>
			<rect id="SVGID_3_" x="-119.3" y="0.2" width="542.6" height="100.8"/>
		</defs>
		<clipPath id="SVGID_4_">
			<use xlink:href="#SVGID_3_"  overflow="visible"/>
		</clipPath>
		<path clip-path="url(#SVGID_4_)" fill="#00783E" d="M-30.2,63.1c1.1,0,1.7-0.4,1.5-1.5l-3.2-18.1c-0.4-2.4-0.9-4.5-1.3-6.9
			c-0.4-2.2-0.6-4.1-1.1-6c-0.2-1.7-0.6-3.2-0.6-4.3c-0.2-1.1-0.2-1.7-0.2-1.7h-0.2c0,0-0.2,1.1-0.4,2.8c-0.2,1.7-0.6,3.9-1.1,6.5
			c-0.4,2.6-0.9,5.6-1.5,8.6c-0.4,3-1.1,6-1.5,8.8c-0.4,2.8-0.9,5-1.3,6.9c-0.2,1.9-0.4,3-0.4,3.2c0,0.6,0,1.1,0.2,1.3
			c0.2,0.2,0.9,0.2,1.7,0.2h4.3h5.2V63.1z M-7.3,90c0.6,0.4,1.3,1.1,1.9,2.2c0.6,0.9,1.1,2.2,1.1,3.7v5.2h-24.3v-4.7
			c0-1.5,0.2-2.6,0.4-3.4c0.2-0.9,0.6-1.5,1.1-1.9c0.4-0.4,0.9-0.9,1.1-1.5c0.4-0.4,0.4-1.1,0.4-1.9c-0.4-2.4-0.6-4.3-0.9-5.8
			c-0.2-1.5-0.4-2.8-0.4-3.7c-0.2-0.9-0.4-1.5-0.6-1.9s-0.9-0.6-1.3-0.6H-30h-11c-0.9,0-1.3,0-1.7,0.2s-0.6,0.6-0.6,1.5
			c0,0.4-0.2,1.3-0.2,2.4s-0.2,2.4-0.4,3.7c-0.2,1.5-0.4,3-0.4,4.5c0,0.9,0.2,1.7,0.4,2.2c0.2,0.4,0.6,1.1,0.9,1.5
			c0.2,0.4,0.6,1.1,0.9,1.9c0.2,0.6,0.4,1.7,0.4,3.2v4.7h-24.1V96c0-1.3,0.2-2.4,0.6-3c0.4-0.6,0.9-1.3,1.5-1.9
			c0.4-0.4,1.1-1.1,1.7-1.5s1.1-1.3,1.3-1.9l7.3-34.7c0.9-4.3,1.7-8.6,2.8-12.7c0.9-4.1,1.7-8,2.4-11.2c0.6-3.2,1.3-6,1.7-8
			c0.2-2.6,0.4-3.7,0.4-3.9v-0.6c0-0.6-0.2-1.3-0.6-1.7c-0.4-0.4-0.9-0.9-1.3-1.5c-0.4-0.6-0.9-1.3-1.3-2.2C-49.8,10.3-50,9-50,7.3
			V2.6c4.7,0,8.4,0,11.4,0c3,0,5.4,0.2,7.1,0.4c1.7,0.4,3,0.9,3.9,1.7c0.9,0.9,1.5,2.2,1.9,3.7c0,0.4,0.4,1.7,0.9,4.1
			s1.1,5.4,1.9,9.3c0.9,3.7,1.7,8,2.6,12.7s1.9,9.5,2.8,14.2c2.4,11.4,5,24.1,8,38.3c0.2,0.6,0.4,1.3,0.9,1.7
			C-8.2,89.4-7.8,89.6-7.3,90"/>
	</g>
	<g>
		<defs>
			<rect id="SVGID_5_" x="-119.3" y="0.2" width="542.6" height="100.8"/>
		</defs>
		<clipPath id="SVGID_6_">
			<use xlink:href="#SVGID_5_"  overflow="visible"/>
		</clipPath>
		<path clip-path="url(#SVGID_6_)" fill="#00783E" d="M47.1,2.4V8c0,1.5-0.4,2.8-1.1,3.7c-0.6,0.9-1.3,1.7-1.9,2.2
			c-0.4,0.2-0.9,0.6-1.1,1.1s-0.6,1.1-0.6,1.7c-2.8,15.1-5.2,28.4-7.3,40.5c-0.9,5.2-1.9,10.1-2.8,14.9c-0.9,5-1.5,9.3-2.4,13.1
			c-0.6,3.9-1.3,6.9-1.7,9.3c-0.4,2.4-0.6,3.4-0.6,3.7c-0.4,0.9-0.9,1.5-1.3,1.9c-0.4,0.6-1.1,0.9-1.7,0.9H9c-0.9,0-1.5-0.2-1.9-0.9
			c-0.4-0.4-0.9-1.5-1.3-2.8L-7.8,16.8c-0.2-0.9-0.4-1.5-0.6-1.9c-0.2-0.4-0.6-0.6-1.3-0.9c-0.6-0.4-1.3-1.1-1.9-2.2
			c-0.6-1.1-1.1-2.4-1.1-3.9V2.4h23.9V8c0,1.5-0.2,2.8-0.9,3.9C9.7,12.7,9,13.6,8.4,14c-0.9,0.4-1.1,1.3-0.6,2.8L17,85.9l9.9-69.1
			c0-1.5-0.4-2.4-1.1-2.8c-0.6-0.4-1.3-1.1-1.9-2.2c-0.6-0.9-1.1-2.2-1.1-3.7V2.4H47.1z"/>
	</g>
	<g>
		<defs>
			<rect id="SVGID_7_" x="-119.3" y="0.2" width="542.6" height="100.8"/>
		</defs>
		<clipPath id="SVGID_8_">
			<use xlink:href="#SVGID_7_"  overflow="visible"/>
		</clipPath>
		<path clip-path="url(#SVGID_8_)" fill="#00783E" d="M71.7,86.8c0,0.9,0.2,1.5,0.4,1.9s0.6,0.6,1.1,1.1c0.6,0.4,1.5,1.3,2.2,2.2
			s1.1,2.2,1.1,3.7v5.6H51.7v-5.6c0-1.5,0.4-2.8,1.1-3.7s1.5-1.7,2.2-2.2c0.4-0.4,0.6-0.6,0.9-1.1s0.4-0.9,0.4-1.5V87V17
			c0-0.9-0.2-1.5-0.4-1.9c-0.2-0.4-0.6-0.6-0.9-1.1c-0.6-0.4-1.5-1.3-2.2-2.2c-0.6-0.9-1.1-2.2-1.1-3.7V2.6h24.5v5.6
			c0,1.5-0.4,2.8-1.1,3.7c-0.6,0.9-1.5,1.7-2.2,2.2c-0.4,0.4-0.9,0.6-1.1,1.1c-0.2,0.4-0.4,0.9-0.4,1.9v69.8H71.7z"/>
	</g>
	<g>
		<defs>
			<rect id="SVGID_9_" x="-119.3" y="0.2" width="542.6" height="100.8"/>
		</defs>
		<clipPath id="SVGID_10_">
			<use xlink:href="#SVGID_9_"  overflow="visible"/>
		</clipPath>
		<path clip-path="url(#SVGID_10_)" fill="#00783E" d="M116,23.7c0-1.1,0-2.2-0.2-3.2s-0.4-1.9-0.9-2.6c-0.4-0.6-1.1-1.3-1.9-1.7
			c-0.9-0.6-1.9-0.9-3.2-0.9h-7.3c-0.6,0-1.1,0.2-1.3,0.6c-0.2,0.4-0.4,0.9-0.4,1.3v69.3c0,1.3,0.6,1.9,1.9,1.9h7.3
			c1.5,0,2.6-0.2,3.4-0.6s1.5-1.1,1.9-1.9c0.4-0.6,0.6-1.7,0.9-2.6c0.2-1.1,0.2-1.9,0.2-3V23.7H116z M109.8,2.6
			c7.5,0,13.1,1.9,16.4,5.8c3.4,3.9,5.2,9,5.2,15.5v55.8c0,6.5-1.7,11.6-5.2,15.5c-3.4,3.9-8.8,5.8-16.4,5.8H80.7v-5.2
			c0-1.9,0.2-3.4,0.9-4.3c0.4-1.1,1.3-1.7,2.2-2.2c1.1-0.4,1.5-1.3,1.5-2.8V17.2c0-1.5-0.6-2.4-1.7-3c-1.9-0.9-2.8-3-2.8-6V2.6
			H109.8z"/>
	</g>
	<g>
		<defs>
			<rect id="SVGID_11_" x="-119.3" y="0.2" width="542.6" height="100.8"/>
		</defs>
		<clipPath id="SVGID_12_">
			<use xlink:href="#SVGID_11_"  overflow="visible"/>
		</clipPath>
		<path clip-path="url(#SVGID_12_)" fill="#FFFFFF" d="M-79.1,23.7c0-1.1,0-2.2-0.2-3.2c-0.2-1.1-0.4-1.9-0.9-2.6
			c-0.4-0.6-1.1-1.3-1.9-1.7c-0.9-0.6-1.9-0.9-3.2-0.9h-7.3c-0.6,0-1.1,0.2-1.3,0.6c-0.2,0.4-0.4,0.9-0.4,1.3v69.3
			c0,1.3,0.6,1.9,1.9,1.9h7.3c1.5,0,2.6-0.2,3.4-0.6c0.9-0.4,1.5-1.1,1.9-1.9c0.4-0.6,0.6-1.7,0.9-2.6c0.2-1.1,0.2-1.9,0.2-3V23.7
			H-79.1z M-85.3,2.6c7.5,0,13.1,1.9,16.4,5.8c3.4,3.9,5.2,9,5.2,15.5v55.8c0,6.5-1.7,11.6-5.2,15.5c-3.4,3.9-8.8,5.8-16.4,5.8
			h-29.1v-5.2c0-1.9,0.2-3.4,0.9-4.3c0.4-1.1,1.3-1.7,2.2-2.2c1.1-0.4,1.5-1.3,1.5-2.8V17.2c0-1.5-0.6-2.4-1.7-3
			c-1.9-0.9-2.8-2.8-2.8-6V2.6H-85.3z"/>
	</g>
	<g>
		<defs>
			<rect id="SVGID_13_" x="-119.3" y="0.2" width="542.6" height="100.8"/>
		</defs>
		<clipPath id="SVGID_14_">
			<use xlink:href="#SVGID_13_"  overflow="visible"/>
		</clipPath>
		<path clip-path="url(#SVGID_14_)" fill="#FFFFFF" d="M-25.4,63.1c1.1,0,1.7-0.4,1.5-1.5l-3.2-18.1c-0.4-2.4-0.9-4.5-1.1-6.7
			c-0.4-2.2-0.6-4.1-1.1-6c-0.2-1.7-0.6-3.2-0.6-4.3c-0.2-1.1-0.2-1.7-0.2-1.7h-0.2c0,0-0.2,1.1-0.4,2.8c-0.2,1.7-0.6,3.9-1.1,6.5
			s-0.9,5.6-1.5,8.6c-0.4,3-1.1,6-1.5,8.8c-0.4,2.6-0.9,5-1.1,6.9s-0.4,3-0.4,3.2c0,0.6,0,1.1,0.2,1.1c0.2,0.2,0.9,0.2,1.7,0.2h4.3
			h4.7V63.1z M-2.6,90c0.6,0.4,1.3,1.1,1.9,2.2C0,93,0.4,94.3,0.4,95.8v5.2h-24.3v-4.7c0-1.5,0.2-2.6,0.4-3.4
			c0.2-0.9,0.6-1.5,1.1-1.9c0.4-0.4,0.9-0.9,1.1-1.5c0.4-0.4,0.4-1.1,0.4-1.9c-0.4-2.4-0.6-4.3-0.9-5.8c-0.2-1.5-0.4-2.8-0.4-3.7
			c-0.2-0.9-0.4-1.5-0.6-1.9s-0.9-0.6-1.3-0.6h-1.1h-11c-0.9,0-1.3,0-1.7,0.2s-0.6,0.6-0.6,1.5c0,0.4-0.2,1.3-0.2,2.4
			s-0.2,2.4-0.4,3.7c-0.2,1.5-0.4,3-0.4,4.5c0,1.1,0.2,1.7,0.4,2.2c0.2,0.4,0.6,1.1,0.9,1.5c0.2,0.4,0.6,1.1,0.9,1.9
			c0.2,0.6,0.4,1.7,0.4,3.2v4.7H-61V96c0-1.3,0.2-2.4,0.6-3c0.4-0.6,0.9-1.3,1.5-1.9c0.4-0.4,1.1-1.1,1.7-1.5
			c0.6-0.4,1.1-1.1,1.3-1.9l7.3-34.7c0.9-4.3,1.7-8.6,2.8-12.7c0.9-4.1,1.7-8,2.4-11.2c0.6-3.2,1.3-6,1.7-8c0.4-2.2,0.6-3.2,0.6-3.2
			v-1.3c0-0.6-0.2-1.3-0.6-1.7c-0.4-0.4-0.9-0.9-1.3-1.5c-0.4-0.6-0.9-1.3-1.3-2.2c-0.4-0.9-0.6-2.2-0.6-3.9V2.6c4.7,0,8.4,0,11.4,0
			c3,0,5.4,0.2,7.1,0.4c1.7,0.4,3,0.9,3.9,1.7c0.9,0.9,1.5,2.2,1.9,3.7c0,0.4,0.4,1.7,0.9,4.1c0.4,2.4,1.1,5.4,1.9,9.3
			c0.9,3.7,1.7,8,2.6,12.7c0.9,4.7,1.9,9.5,2.8,14.2c2.4,11.4,5,24.1,8,38.3c0.2,0.6,0.4,1.3,0.9,1.7C-3.5,89.4-3,89.6-2.6,90"/>
	</g>
	<g>
		<defs>
			<rect id="SVGID_15_" x="-119.3" y="0.2" width="542.6" height="100.8"/>
		</defs>
		<clipPath id="SVGID_16_">
			<use xlink:href="#SVGID_15_"  overflow="visible"/>
		</clipPath>
		<path clip-path="url(#SVGID_16_)" fill="#FFFFFF" d="M51.9,2.4V8c0,1.5-0.4,2.8-1.1,3.7c-0.6,0.9-1.3,1.7-1.9,2.2
			c-0.4,0.2-0.9,0.6-1.1,1.1c-0.2,0.4-0.6,1.1-0.6,1.7C44.3,31.7,42,45,39.8,57.1c-0.9,5.2-1.9,10.1-2.8,14.9
			c-0.9,5-1.5,9.3-2.4,13.1c-0.6,3.9-1.3,6.9-1.7,9.3c-0.4,2.4-0.6,3.4-0.6,3.7c-0.4,0.9-0.9,1.5-1.3,1.9c-0.4,0.6-1.1,0.9-1.7,0.9
			H13.8c-0.9,0-1.5-0.2-1.9-0.9c-0.4-0.4-0.9-1.5-1.3-2.8L-3,16.8c-0.2-0.9-0.4-1.5-0.6-1.9C-3.9,14.4-4.3,14.2-5,14
			c-0.6-0.4-1.3-1.1-1.9-2.2C-7.6,10.8-8,9.5-8,8V2.4h23.9V8c0,1.5-0.2,2.8-0.9,3.9c-0.6,0.9-1.3,1.7-1.9,2.2
			c-0.9,0.4-1.1,1.3-0.6,2.8l9.3,69.1l9.9-69.1c0-1.5-0.4-2.4-1.1-2.8c-0.6-0.4-1.3-1.1-1.9-2.2C28,11,27.8,9.7,27.8,8V2.4H51.9z"/>
	</g>
	<g>
		<defs>
			<rect id="SVGID_17_" x="-119.3" y="0.2" width="542.6" height="100.8"/>
		</defs>
		<clipPath id="SVGID_18_">
			<use xlink:href="#SVGID_17_"  overflow="visible"/>
		</clipPath>
		<path clip-path="url(#SVGID_18_)" fill="#FFFFFF" d="M76.6,86.8c0,0.9,0.2,1.5,0.4,1.9s0.6,0.6,1.1,1.1c0.6,0.4,1.5,1.3,2.2,2.2
			s1.1,2.2,1.1,3.7v5.6H56.6v-5.6c0-1.5,0.4-2.8,1.1-3.7s1.5-1.7,2.2-2.2c0.4-0.4,0.6-0.6,0.9-1.1c0.2-0.4,0.4-0.9,0.4-1.5V87V17
			c0-0.9-0.2-1.5-0.4-1.9c-0.2-0.4-0.6-0.6-0.9-1.1c-0.6-0.4-1.5-1.3-2.2-2.2C57,11,56.6,9.7,56.6,8.2V2.6h24.3v5.6
			c0,1.5-0.4,2.8-1.1,3.7c-0.6,0.9-1.5,1.7-2.2,2.2c-0.4,0.4-0.9,0.6-1.1,1.1c0,0.4,0,1.1,0,1.9V86.8z"/>
	</g>
	<g>
		<defs>
			<rect id="SVGID_19_" x="-119.3" y="0.2" width="542.6" height="100.8"/>
		</defs>
		<clipPath id="SVGID_20_">
			<use xlink:href="#SVGID_19_"  overflow="visible"/>
		</clipPath>
		<path clip-path="url(#SVGID_20_)" fill="#FFFFFF" d="M120.8,23.7c0-1.1,0-2.2-0.2-3.2s-0.4-1.9-0.9-2.6c-0.4-0.6-1.1-1.3-1.9-1.7
			c-0.9-0.4-1.9-0.6-3.4-0.6H107c-0.6,0-1.1,0.2-1.3,0.6c-0.2,0.4-0.4,0.9-0.4,1.3v69.3c0,1.3,0.6,1.9,1.9,1.9h7.3
			c1.5,0,2.6-0.2,3.4-0.6s1.5-1.1,1.9-1.9c0.4-0.6,0.6-1.7,0.9-2.6c0.2-1.1,0.2-1.9,0.2-3V23.7H120.8z M114.5,2.6
			c7.5,0,13.1,1.9,16.4,5.8c3.4,3.9,5.2,9,5.2,15.5v55.8c0,6.5-1.7,11.6-5.2,15.5c-3.4,3.9-8.8,5.8-16.4,5.8H85.5v-5.2
			c0-1.9,0.2-3.4,0.9-4.3c0.4-1.1,1.3-1.7,2.2-2.2c1.1-0.4,1.5-1.3,1.5-2.8V17.2c0-1.5-0.6-2.4-1.7-3c-1.9-0.9-2.8-3-2.8-6V2.6
			H114.5z"/>
	</g>
	<g>
		<defs>
			<rect id="SVGID_21_" x="-119.3" y="0.2" width="542.6" height="100.8"/>
		</defs>
		<clipPath id="SVGID_22_">
			<use xlink:href="#SVGID_21_"  overflow="visible"/>
		</clipPath>
		<path clip-path="url(#SVGID_22_)" fill="#00783E" d="M186.5,40.9c0,0.9,0.4,1.5,1.5,1.5h6c2.8,0,4.5-0.9,5.2-2.4
			c0.6-1.5,1.1-3.9,1.1-6.9v-11c0-3-0.4-5.2-1.1-6.2s-2.4-1.7-5.2-1.7h-6c-0.9,0-1.5,0.4-1.5,1.5V40.9z M201.5,64.4v-4.3
			c0-1.3-0.2-2.4-0.4-3.2c-0.2-0.9-0.6-1.5-1.5-1.9c-0.6-0.4-1.7-0.6-3.2-0.6h-8.2c-1.3,0-1.9,0.6-1.9,1.9v29.7
			c0,1.3,0.4,1.9,1.5,1.9h7.1c2.8,0,4.5-0.6,5.2-1.9c0.6-1.3,1.1-3.4,1.1-6.5V64.4H201.5z M170.9,85.3V16.1c0-1.5-0.4-2.4-1.5-2.8
			c-0.9-0.4-1.5-1.1-2.2-2.2c-0.4-1.1-0.9-2.6-0.9-4.3V1.5h27.3c7.5,0,12.9,1.9,16.4,5.6c3.4,3.7,5.2,8.8,5.2,15.3v11.4
			c0,2.8-0.2,5.2-0.9,7.3c-0.6,2.2-1.7,3.9-3.2,5.4c-0.4,0.4-0.9,0.9-0.9,1.5c0,0.4,0.4,1.1,1.1,1.5c1.9,1.5,3.4,3.4,4.1,6
			c0.6,2.4,1.1,5.2,1.1,8.4V79c0,6.5-1.7,11.6-5.2,15.5c-3.4,3.9-8.8,5.8-16.4,5.8h-24.3L170.9,85.3z"/>
	</g>
	<g>
		<defs>
			<rect id="SVGID_23_" x="-119.3" y="0.2" width="542.6" height="100.8"/>
		</defs>
		<clipPath id="SVGID_24_">
			<use xlink:href="#SVGID_23_"  overflow="visible"/>
		</clipPath>
		<path clip-path="url(#SVGID_24_)" fill="#00783E" d="M242.9,85.7c0,0.9,0.2,1.5,0.4,1.9c0.2,0.4,0.6,0.6,1.1,1.1
			c0.6,0.4,1.5,1.3,2.2,2.2c0.6,0.9,1.1,2.2,1.1,3.7v5.6h-24.5v-5.6c0-1.5,0.4-2.8,1.1-3.7c0.6-0.9,1.5-1.7,2.2-2.2
			c0.4-0.4,0.6-0.6,0.9-1.1c0.2-0.4,0.4-0.9,0.4-1.5v-0.2v-70c0-0.9-0.2-1.5-0.4-1.9c-0.2-0.4-0.6-0.6-0.9-1.1
			c-0.6-0.4-1.5-1.3-2.2-2.2c-0.6-0.9-1.1-2.2-1.1-3.7V1.5h24.5v5.6c0,1.5-0.4,2.8-1.1,3.7c-0.6,0.9-1.5,1.7-2.2,2.2
			c-0.4,0.4-0.9,0.6-1.1,1.1c-0.2,0.4-0.4,0.9-0.4,1.9V85.7z"/>
	</g>
	<g>
		<defs>
			<rect id="SVGID_25_" x="-119.3" y="0.2" width="542.6" height="100.8"/>
		</defs>
		<clipPath id="SVGID_26_">
			<use xlink:href="#SVGID_25_"  overflow="visible"/>
		</clipPath>
		<path clip-path="url(#SVGID_26_)" fill="#00783E" d="M286.4,22.6c0-2.8-0.9-4.7-2.4-6.2c-1.5-1.5-3.4-2.2-5.6-2.2h-5.2
			c-1.1,0-1.5,0.6-1.5,1.9V42c0,0.6,0.2,1.3,0.4,1.5c0.2,0.2,0.6,0.4,1.1,0.4h6.7c2.8,0,4.5-0.6,5.4-2.2c0.9-1.5,1.3-3.4,1.3-6V22.6
			H286.4z M302.9,87.4c0.6,0.4,1.3,1.1,1.9,1.9c0.4,0.9,0.9,1.9,0.9,3.4v7.1H293c-2.4,0-4.1-0.6-5.2-2.2c-1.1-1.5-1.7-3-1.7-5V63.7
			c0-2.6-0.4-4.5-1.5-5.6c-1.1-1.3-2.8-1.9-5.6-1.9h-5.6c-1.1,0-1.7,0.6-1.7,1.9v27.6c0,0.9,0.2,1.5,0.4,1.9
			c0.2,0.4,0.6,0.6,1.1,0.9c0.6,0.4,1.5,1.3,2.2,2.2c0.6,0.9,1.1,2.2,1.1,3.7v5.6h-24.3v-5.6c0-1.5,0.4-2.8,1.1-3.7
			c0.6-0.9,1.5-1.7,2.2-2.2c0.4-0.2,0.6-0.6,0.9-0.9c0.2-0.4,0.4-0.9,0.4-1.7v-70v-1.7c0-0.4-0.2-0.6-0.6-0.9
			c-0.6-0.4-1.5-1.1-2.4-2.2c-0.9-0.9-1.3-2.4-1.3-4.1V1.5h27.8c3.2,0,6.2,0.6,8.8,1.7c2.6,1.1,5,2.6,6.9,4.5
			c1.9,1.9,3.2,4.3,4.3,6.9c1.1,2.6,1.5,5.6,1.5,8.8v12.1c0,2.8-0.4,5.4-1.3,7.8c-0.9,2.4-2.2,4.3-3.9,5.8c-1.1,0.9-1.1,1.7,0.2,2.6
			c1.9,1.5,3.2,3.7,3.9,6.2c0.6,2.6,0.9,5.6,0.9,8.8v18.1c0,0.9,0.2,1.3,0.4,1.7C302.3,87,302.5,87.2,302.9,87.4"/>
	</g>
	<g>
		<defs>
			<rect id="SVGID_27_" x="-119.3" y="0.2" width="542.6" height="100.8"/>
		</defs>
		<clipPath id="SVGID_28_">
			<use xlink:href="#SVGID_27_"  overflow="visible"/>
		</clipPath>
		<path clip-path="url(#SVGID_28_)" fill="#00783E" d="M334.2,101c-3.2,0-6.2-0.4-9.3-1.5c-2.8-0.9-5.4-2.4-7.5-4.1
			c-2.2-1.7-3.9-4.1-5.2-6.7s-1.9-5.6-1.9-9V21.3c0-3.2,0.6-6.2,1.9-9c1.3-2.6,3-5,5.2-6.7c2.2-1.7,4.7-3.2,7.5-4.1
			c2.8-0.9,6-1.5,9.3-1.5c3.2,0,6.2,0.4,9,1.5c2.8,0.9,5.4,2.4,7.5,4.1s3.9,4.1,5.2,6.7c1.3,2.6,1.9,5.6,1.9,9v11.2h-8
			c-2.2,0-4.1-0.6-5.6-1.9c-1.5-1.3-2.4-3-2.4-5.2v-5c0-1.7-0.9-3.2-2.4-5s-3.4-2.4-5.8-2.4s-4.3,0.9-5.8,2.4
			c-1.5,1.7-2.2,3.2-2.2,5v61.4c0,1.5,0.9,2.8,2.4,4.3c1.5,1.5,3.7,2.2,6,2.2c1.3,0,2.4-0.2,3.4-0.6c1.1-0.4,1.9-1.1,2.6-1.7
			c0.6-0.6,1.3-1.5,1.7-2.2c0.4-0.9,0.6-1.5,0.6-2.4v-5.2c0-1.9,0.6-3.9,1.7-5.2c1.3-1.5,3-2.2,5.2-2.2h8.4v11c0,3.2-0.6,6.2-1.9,9
			c-1.3,2.6-3,5-5.2,6.7c-2.2,1.7-4.7,3.2-7.5,4.1S337.4,101,334.2,101"/>
	</g>
	<g>
		<defs>
			<rect id="SVGID_29_" x="-119.3" y="0.2" width="542.6" height="100.8"/>
		</defs>
		<clipPath id="SVGID_30_">
			<use xlink:href="#SVGID_29_"  overflow="visible"/>
		</clipPath>
		<path clip-path="url(#SVGID_30_)" fill="#00783E" d="M418.6,7.1L418.6,7.1c0,2.4-1.1,4.3-3,6c-0.4,0.2-0.6,0.4-0.9,0.9
			c-0.2,0.2-0.4,0.6-0.4,1.3v0.4v70c0,0.9,0.2,1.5,0.4,1.9s0.6,0.6,1.1,1.1c0.6,0.4,1.3,1.3,1.9,2.2c0.6,0.9,1.1,2.2,1.1,3.7v5.6
			h-24.5v-5.6c0-1.5,0.4-2.8,1.1-3.7c0.6-0.9,1.5-1.7,2.2-2.2c0.4-0.4,0.9-0.6,1.1-1.1c0.2-0.2,0.4-0.9,0.4-1.5V56.8
			c0-1.3-0.6-1.9-1.9-1.9h-12.9c-0.4,0-1.1,0.2-1.3,0.4c-0.4,0.4-0.6,0.9-0.6,1.3v28.6c0,0.9,0.2,1.3,0.4,1.7
			c0.2,0.4,0.6,0.6,0.9,1.1c0.6,0.4,1.5,1.3,2.2,2.2c0.6,0.9,1.1,2.2,1.1,3.7v5.6h-24.3v-5.6c0-1.5,0.4-2.8,1.1-3.7
			c0.6-0.9,1.5-1.7,2.2-2.2c0.4-0.4,0.9-0.6,1.1-1.1c0.2-0.4,0.4-0.9,0.4-1.7V15.9c0-0.9-0.2-1.5-0.4-1.9c-0.2-0.4-0.6-0.6-1.1-1.1
			c-1.9-1.3-3-3.2-3.2-5.8V1.5h24.3v0.2v5.6v0.2c0,1.1-0.2,2.2-0.9,3.2c-0.6,1.1-1.3,1.9-2.4,2.6c-0.4,0.4-0.6,0.6-0.9,1.1
			c-0.2,0.2-0.4,0.9-0.4,1.5v24.8c0,0.6,0.2,1.3,0.6,1.5s0.9,0.4,1.3,0.4h13.1c0.6,0,1.1-0.2,1.3-0.6c0.2-0.4,0.4-0.9,0.4-1.3V15.9
			c0-0.9-0.2-1.5-0.4-1.9c-0.2-0.4-0.6-0.6-1.1-1.1c-1.9-1.5-3-3.2-3.2-5.8V1.5h24.5v5.6H418.6z"/>
	</g>
	<g>
		<defs>
			<rect id="SVGID_31_" x="-119.3" y="0.2" width="542.6" height="100.8"/>
		</defs>
		<clipPath id="SVGID_32_">
			<use xlink:href="#SVGID_31_"  overflow="visible"/>
		</clipPath>
		<path clip-path="url(#SVGID_32_)" fill="#FFFFFF" d="M191.2,41.1c0,0.9,0.4,1.5,1.5,1.5h6c2.8,0,4.5-0.9,5.2-2.4
			c0.6-1.5,1.1-3.9,1.1-6.9v-11c0-3-0.4-5.2-1.1-6.2s-2.4-1.7-5.2-1.7h-6c-0.9,0-1.5,0.4-1.5,1.5V41.1z M206.3,64.4v-4.3
			c0-1.3-0.2-2.4-0.4-3.2c-0.2-0.9-0.6-1.5-1.5-1.9c-0.6-0.4-1.7-0.6-3.2-0.6h-8.2c-1.3,0-1.9,0.6-1.9,1.9v29.7
			c0,1.3,0.4,1.9,1.5,1.9h7.1c2.8,0,4.5-0.6,5.2-1.9c0.6-1.3,1.1-3.4,1.1-6.5V64.4H206.3z M175.7,85.3V16.1c0-1.5-0.4-2.4-1.5-2.8
			c-0.9-0.4-1.5-1.1-2.2-2.2c-0.4-1.1-0.9-2.6-0.9-4.3V1.5h27.3c7.5,0,12.9,1.9,16.4,5.6c3.4,3.7,5.2,8.8,5.2,15.3v11.4
			c0,2.8-0.2,5.2-0.9,7.3c-0.6,2.2-1.7,3.9-3.2,5.4c-0.4,0.4-0.9,0.9-0.9,1.5c0,0.4,0.4,1.1,1.1,1.5c1.9,1.5,3.4,3.4,4.1,6
			c0.6,2.4,1.1,5.2,1.1,8.4V79c0,6.5-1.7,11.6-5.2,15.5c-3.4,3.9-8.8,5.8-16.4,5.8h-24.1V85.3z"/>
	</g>
	<g>
		<defs>
			<rect id="SVGID_33_" x="-119.3" y="0.2" width="542.6" height="100.8"/>
		</defs>
		<clipPath id="SVGID_34_">
			<use xlink:href="#SVGID_33_"  overflow="visible"/>
		</clipPath>
		<path clip-path="url(#SVGID_34_)" fill="#FFFFFF" d="M247.8,85.7c0,0.9,0.2,1.5,0.4,1.9c0.2,0.4,0.6,0.6,1.1,1.1
			c0.6,0.4,1.5,1.3,2.2,2.2c0.6,0.9,1.1,2.2,1.1,3.7v5.6H228v-5.6c0-1.5,0.4-2.8,1.1-3.7c0.6-0.9,1.5-1.7,2.2-2.2
			c0.4-0.4,0.6-0.6,0.9-1.1c0.2-0.4,0.4-0.9,0.4-1.5v-0.2v-70c0-0.9-0.2-1.5-0.4-1.9c-0.2-0.4-0.6-0.6-0.9-1.1
			c-0.6-0.4-1.5-1.3-2.2-2.2c-0.6-0.9-1.1-2.2-1.1-3.7V1.5h24.5v5.6c0,1.5-0.4,2.8-1.1,3.7c-0.6,0.9-1.5,1.7-2.2,2.2
			c-0.4,0.4-0.9,0.6-1.1,1.1c-0.2,0.4-0.4,0.9-0.4,1.9V85.7z"/>
	</g>
	<g>
		<defs>
			<rect id="SVGID_35_" x="-119.3" y="0.2" width="542.6" height="100.8"/>
		</defs>
		<clipPath id="SVGID_36_">
			<use xlink:href="#SVGID_35_"  overflow="visible"/>
		</clipPath>
		<path clip-path="url(#SVGID_36_)" fill="#FFFFFF" d="M291.3,22.6c0-2.8-0.9-4.7-2.4-6.2s-3.4-2.2-5.6-2.2h-5.2
			c-1.1,0-1.5,0.6-1.5,1.9V42c0,0.6,0.2,1.3,0.4,1.5c0.2,0.2,0.6,0.4,1.1,0.4h6.7c2.8,0,4.5-0.6,5.4-2.2c0.9-1.5,1.3-3.4,1.3-6V22.6
			H291.3z M307.9,87.4c0.6,0.4,1.3,1.1,1.9,1.9c0.4,0.9,0.9,1.9,0.9,3.4v7.1H298c-2.4,0-4.1-0.6-5.2-2.2c-1.1-1.5-1.7-3-1.7-5V63.7
			c0-2.6-0.4-4.5-1.5-5.6c-1.1-1.3-2.8-1.9-5.6-1.9h-5.6c-1.1,0-1.7,0.6-1.7,1.9v27.6c0,0.9,0.2,1.5,0.4,1.9
			c0.2,0.4,0.6,0.6,1.1,0.9c0.6,0.4,1.5,1.3,2.2,2.2c0.6,0.9,1.1,2.2,1.1,3.7v5.6h-24.3v-5.6c0-1.5,0.4-2.8,1.1-3.7
			c0.6-0.9,1.5-1.7,2.2-2.2c0.4-0.2,0.6-0.6,0.9-0.9c0.2-0.4,0.4-0.9,0.4-1.7v-70v-1.7c0-0.4-0.2-0.6-0.6-0.9
			c-0.6-0.4-1.5-1.1-2.4-2.2c-0.9-0.9-1.3-2.4-1.3-4.1V1.5h27.8c3.2,0,6.2,0.6,8.8,1.7c2.6,1.1,5,2.6,6.9,4.5
			c1.9,1.9,3.2,4.3,4.3,6.9c1.1,2.6,1.5,5.6,1.5,8.8v12.1c0,2.8-0.4,5.4-1.3,7.8c-0.9,2.4-2.2,4.3-3.9,5.8c-1.1,0.9-1.1,1.7,0.2,2.6
			c1.9,1.5,3.2,3.7,3.9,6.2c0.6,2.6,0.9,5.6,0.9,8.8v18.1c0,0.9,0.2,1.3,0.4,1.7C307,87,307.5,87.2,307.9,87.4"/>
	</g>
	<g>
		<defs>
			<rect id="SVGID_37_" x="-119.3" y="0.2" width="542.6" height="100.8"/>
		</defs>
		<clipPath id="SVGID_38_">
			<use xlink:href="#SVGID_37_"  overflow="visible"/>
		</clipPath>
		<path clip-path="url(#SVGID_38_)" fill="#FFFFFF" d="M338.9,101c-3.2,0-6.2-0.4-9.3-1.5c-2.8-0.9-5.4-2.4-7.5-4.1
			c-2.2-1.7-3.9-4.1-5.2-6.7c-1.3-2.6-1.9-5.6-1.9-9V21.3c0-3.2,0.6-6.2,1.9-9c1.3-2.6,3-5,5.2-6.7s4.7-3.2,7.5-4.1
			c2.8-0.9,6-1.5,9.3-1.5c3.2,0,6.2,0.4,9,1.5c2.8,0.9,5.4,2.4,7.5,4.1s3.9,4.1,5.2,6.7c1.3,2.6,1.9,5.6,1.9,9v11.2h-8
			c-2.2,0-4.1-0.6-5.6-1.9c-1.5-1.3-2.4-3-2.4-5.2v-5c0-1.7-0.9-3.2-2.4-5c-1.5-1.7-3.4-2.4-5.8-2.4c-2.4,0-4.3,0.9-5.8,2.4
			c-1.5,1.7-2.2,3.2-2.2,5v61.4c0,1.5,0.9,2.8,2.4,4.3c1.5,1.5,3.7,2.2,6,2.2c1.3,0,2.4-0.2,3.4-0.6s1.9-1.1,2.6-1.7
			c0.6-0.6,1.3-1.5,1.7-2.2c0.4-0.9,0.6-1.5,0.6-2.4v-5.2c0-1.9,0.6-3.9,1.7-5.2c1.3-1.5,3-2.2,5.2-2.2h8.4v11c0,3.2-0.6,6.2-1.9,9
			c-1.3,2.6-3,5-5.2,6.7c-2.2,1.7-4.7,3.2-7.5,4.1C345.2,100.6,342.1,101,338.9,101"/>
	</g>
	<g>
		<defs>
			<rect id="SVGID_39_" x="-119.3" y="0.2" width="542.6" height="100.8"/>
		</defs>
		<clipPath id="SVGID_40_">
			<use xlink:href="#SVGID_39_"  overflow="visible"/>
		</clipPath>
		<path clip-path="url(#SVGID_40_)" fill="#FFFFFF" d="M423.3,7.1L423.3,7.1c0,2.4-1.1,4.3-3,6c-0.4,0.2-0.6,0.4-0.9,0.9
			c-0.2,0.2-0.4,0.6-0.4,1.3v0.4v70c0,0.9,0.2,1.5,0.4,1.9s0.6,0.6,1.1,1.1c0.6,0.4,1.3,1.3,1.9,2.2c0.6,0.9,1.1,2.2,1.1,3.7v5.6
			H399v-5.6c0-1.5,0.4-2.8,1.1-3.7c0.6-0.9,1.5-1.7,2.2-2.2c0.4-0.4,0.9-0.6,1.1-1.1c0.2-0.2,0.4-0.9,0.4-1.5V56.8
			c0-1.3-0.6-1.9-1.9-1.9h-12.9c-0.4,0-1.1,0.2-1.3,0.4c-0.4,0.4-0.6,0.9-0.6,1.3v28.6c0,0.9,0.2,1.3,0.4,1.7s0.6,0.6,0.9,1.1
			c0.6,0.4,1.5,1.3,2.2,2.2c0.6,0.9,1.1,2.2,1.1,3.7v5.6h-24.3v-5.6c0-1.5,0.4-2.8,1.1-3.7c0.6-0.9,1.5-1.7,2.2-2.2
			c0.4-0.4,0.9-0.6,1.1-1.1c0.2-0.4,0.4-0.9,0.4-1.7V15.9c0-0.9-0.2-1.5-0.4-1.9c-0.2-0.4-0.6-0.6-1.1-1.1c-1.9-1.3-3-3.2-3.2-5.8
			V1.5H391v0.2v5.6v0.2c0,1.1-0.2,2.2-0.9,3.2s-1.3,1.9-2.4,2.6c-0.4,0.4-0.6,0.6-0.9,1.1c-0.2,0.2-0.4,0.9-0.4,1.5v24.8
			c0,0.6,0.2,1.3,0.6,1.5c0.4,0.2,0.9,0.4,1.3,0.4h13.1c0.6,0,1.1-0.2,1.3-0.6c0.2-0.4,0.4-0.9,0.4-1.3V15.9c0-0.9-0.2-1.5-0.4-1.9
			c-0.2-0.4-0.6-0.6-1.1-1.1c-1.9-1.5-3-3.2-3.2-5.8V1.5h24.8V7.1z"/>
	</g>
</g>
</svg>
