<?xml version="1.0" encoding="utf-8"?>
<!-- Generator: Adobe Illustrator 18.1.1, SVG Export Plug-In . SVG Version: 6.00 Build 0)  -->
<!DOCTYPE svg PUBLIC "-//W3C//DTD SVG 1.1//EN" "http://www.w3.org/Graphics/SVG/1.1/DTD/svg11.dtd">
<svg version="1.1" id="Layer_1" xmlns="http://www.w3.org/2000/svg" xmlns:xlink="http://www.w3.org/1999/xlink" x="0px" y="0px"
	 width="684.9px" height="127.2px" viewBox="312 -33.2 684.9 127.2" enable-background="new 312 -33.2 684.9 127.2"
	 xml:space="preserve">
<g>
	<g>
		<rect x="383.2" y="-20" fill="none" width="542.6" height="100.8"/>
		<path fill="#00783E" d="M418.5,3.5c0-1.1,0-2.2-0.2-3.2c-0.2-1.1-0.4-1.9-0.9-2.6c-0.4-0.6-1.1-1.3-1.9-1.7
			c-0.6-0.6-1.7-0.9-3.2-0.9H405c-0.4,0-1.1,0.2-1.3,0.6c-0.2,0.4-0.4,0.9-0.4,1.3v69.3c0,1.3,0.6,1.9,1.9,1.9h7.3
			c1.5,0,2.6-0.2,3.4-0.6c0.9-0.4,1.5-1.1,1.9-1.9c0.4-0.6,0.6-1.7,0.9-2.6c0.2-1.1,0.2-1.9,0.2-3V3.5H418.5z M412.2-17.6
			c7.5,0,13.1,1.9,16.4,5.8c3.4,3.9,5.2,9,5.2,15.5v55.8c0,6.5-1.7,11.6-5.2,15.5c-3.4,3.9-8.8,5.8-16.4,5.8h-29.1v-5.2
			c0-1.9,0.2-3.4,0.9-4.3c0.4-1.1,1.3-1.7,2.2-2.2c1.1-0.4,1.5-1.3,1.5-2.8V-3c0-1.5-0.6-2.4-1.7-3c-1.9-0.9-2.8-2.8-2.8-6v-5.6
			H412.2z"/>
	</g>
	<g>
		<rect x="383.2" y="-20" fill="none" width="542.6" height="100.8"/>
		<path fill="#00783E" d="M472.3,42.9c1.1,0,1.7-0.4,1.5-1.5l-3.2-18.1c-0.4-2.4-0.9-4.5-1.3-6.9c-0.4-2.2-0.6-4.1-1.1-6
			c-0.2-1.7-0.6-3.2-0.6-4.3c-0.2-1.1-0.2-1.7-0.2-1.7h-0.2c0,0-0.2,1.1-0.4,2.8c-0.2,1.7-0.6,3.9-1.1,6.5c-0.4,2.6-0.9,5.6-1.5,8.6
			c-0.4,3-1.1,6-1.5,8.8s-0.9,5-1.3,6.9c-0.2,1.9-0.4,3-0.4,3.2c0,0.6,0,1.1,0.2,1.3s0.9,0.2,1.7,0.2h4.3h5.2v0.2H472.3z
			 M495.2,69.8c0.6,0.4,1.3,1.1,1.9,2.2c0.6,0.9,1.1,2.2,1.1,3.7v5.2h-24.3v-4.7c0-1.5,0.2-2.6,0.4-3.4c0.2-0.9,0.6-1.5,1.1-1.9
			c0.4-0.4,0.9-0.9,1.1-1.5c0.4-0.4,0.4-1.1,0.4-1.9c-0.4-2.4-0.6-4.3-0.9-5.8c-0.2-1.5-0.4-2.8-0.4-3.7c-0.2-0.9-0.4-1.5-0.6-1.9
			c-0.2-0.4-0.9-0.6-1.3-0.6h-1.2h-11c-0.9,0-1.3,0-1.7,0.2c-0.4,0.2-0.6,0.6-0.6,1.5c0,0.4-0.2,1.3-0.2,2.4s-0.2,2.4-0.4,3.7
			c-0.2,1.5-0.4,3-0.4,4.5c0,0.9,0.2,1.7,0.4,2.2c0.2,0.4,0.6,1.1,0.9,1.5c0.2,0.4,0.6,1.1,0.9,1.9c0.2,0.6,0.4,1.7,0.4,3.2v4.7
			h-24.1v-5.5c0-1.3,0.2-2.4,0.6-3s0.9-1.3,1.5-1.9c0.4-0.4,1.1-1.1,1.7-1.5c0.6-0.4,1.1-1.3,1.3-1.9l7.3-34.7
			c0.9-4.3,1.7-8.6,2.8-12.7c0.9-4.1,1.7-8,2.4-11.2c0.6-3.2,1.3-6,1.7-8c0.2-2.6,0.4-3.7,0.4-3.9v-0.6c0-0.6-0.2-1.3-0.6-1.7
			s-0.9-0.9-1.3-1.5c-0.4-0.6-0.9-1.3-1.3-2.2c-0.5-0.9-0.7-2.2-0.7-3.9v-4.7c4.7,0,8.4,0,11.4,0s5.4,0.2,7.1,0.4
			c1.7,0.4,3,0.9,3.9,1.7c0.9,0.9,1.5,2.2,1.9,3.7c0,0.4,0.4,1.7,0.9,4.1s1.1,5.4,1.9,9.3c0.9,3.7,1.7,8,2.6,12.7s1.9,9.5,2.8,14.2
			c2.4,11.4,5,24.1,8,38.3c0.2,0.6,0.4,1.3,0.9,1.7C494.3,69.2,494.7,69.4,495.2,69.8"/>
	</g>
	<g>
		<rect x="383.2" y="-20" fill="none" width="542.6" height="100.8"/>
		<path fill="#00783E" d="M549.6-17.8v5.6c0,1.5-0.4,2.8-1.1,3.7c-0.6,0.9-1.3,1.7-1.9,2.2c-0.4,0.2-0.9,0.6-1.1,1.1
			s-0.6,1.1-0.6,1.7c-2.8,15.1-5.2,28.4-7.3,40.5c-0.9,5.2-1.9,10.1-2.8,14.9c-0.9,5-1.5,9.3-2.4,13.1c-0.6,3.9-1.3,6.9-1.7,9.3
			s-0.6,3.4-0.6,3.7c-0.4,0.9-0.9,1.5-1.3,1.9c-0.4,0.6-1.1,0.9-1.7,0.9h-15.6c-0.9,0-1.5-0.2-1.9-0.9c-0.4-0.4-0.9-1.5-1.3-2.8
			L494.7-3.4c-0.2-0.9-0.4-1.5-0.6-1.9s-0.6-0.6-1.3-0.9c-0.6-0.4-1.3-1.1-1.9-2.2c-0.6-1.1-1.1-2.4-1.1-3.9v-5.5h23.9v5.6
			c0,1.5-0.2,2.8-0.9,3.9c-0.6,0.8-1.3,1.7-1.9,2.1c-0.9,0.4-1.1,1.3-0.6,2.8l9.2,69.1l9.9-69.1c0-1.5-0.4-2.4-1.1-2.8
			c-0.6-0.4-1.3-1.1-1.9-2.2c-0.6-0.9-1.1-2.2-1.1-3.7v-5.7H549.6z"/>
	</g>
	<g>
		<rect x="383.2" y="-20" fill="none" width="542.6" height="100.8"/>
		<path fill="#00783E" d="M574.2,66.6c0,0.9,0.2,1.5,0.4,1.9c0.2,0.4,0.6,0.6,1.1,1.1c0.6,0.4,1.5,1.3,2.2,2.2
			c0.7,0.9,1.1,2.2,1.1,3.7v5.6h-24.8v-5.6c0-1.5,0.4-2.8,1.1-3.7c0.7-0.9,1.5-1.7,2.2-2.2c0.4-0.4,0.6-0.6,0.9-1.1s0.4-0.9,0.4-1.5
			v-0.2v-70c0-0.9-0.2-1.5-0.4-1.9s-0.6-0.6-0.9-1.1c-0.6-0.4-1.5-1.3-2.2-2.2c-0.6-0.9-1.1-2.2-1.1-3.7v-5.5h24.5v5.6
			c0,1.5-0.4,2.8-1.1,3.7c-0.6,0.9-1.5,1.7-2.2,2.2c-0.4,0.4-0.9,0.6-1.1,1.1c-0.2,0.4-0.4,0.9-0.4,1.9v69.8L574.2,66.6L574.2,66.6z
			"/>
	</g>
	<g>
		<rect x="383.2" y="-20" fill="none" width="542.6" height="100.8"/>
		<path fill="#00783E" d="M618.5,3.5c0-1.1,0-2.2-0.2-3.2c-0.2-1-0.4-1.9-0.9-2.6c-0.4-0.6-1.1-1.3-1.9-1.7
			c-0.9-0.6-1.9-0.9-3.2-0.9H605c-0.6,0-1.1,0.2-1.3,0.6c-0.2,0.4-0.4,0.9-0.4,1.3v69.3c0,1.3,0.6,1.9,1.9,1.9h7.3
			c1.5,0,2.6-0.2,3.4-0.6s1.5-1.1,1.9-1.9c0.4-0.6,0.6-1.7,0.9-2.6c0.2-1.1,0.2-1.9,0.2-3V3.5H618.5z M612.2-17.6
			c7.5,0,13.1,1.9,16.4,5.8c3.4,3.9,5.2,9,5.2,15.5v55.8c0,6.5-1.7,11.6-5.2,15.5c-3.4,3.9-8.8,5.8-16.4,5.8h-29.1v-5.2
			c0-1.9,0.2-3.4,0.9-4.3c0.4-1.1,1.3-1.7,2.2-2.2c1.1-0.4,1.5-1.3,1.5-2.8V-3c0-1.5-0.6-2.4-1.7-3c-1.9-0.9-2.8-3-2.8-6v-5.6H612.2
			z"/>
	</g>
	<g>
		<rect x="383.2" y="-20" fill="none" width="542.6" height="100.8"/>
		<path fill="#FFFFFF" d="M427,3.5c0-1.1,0-2.2-0.2-3.2c-0.2-1.1-0.4-1.9-0.9-2.6c-0.4-0.6-1.1-1.3-1.9-1.7
			c-0.9-0.6-1.9-0.9-3.2-0.9h-7.3c-0.6,0-1.1,0.2-1.3,0.6c-0.2,0.4-0.4,0.9-0.4,1.3v69.3c0,1.3,0.6,1.9,1.9,1.9h7.3
			c1.5,0,2.6-0.2,3.4-0.6c0.9-0.4,1.5-1.1,1.9-1.9c0.4-0.6,0.6-1.7,0.9-2.6c0.2-1.1,0.2-1.9,0.2-3V3.5H427z M420.8-17.6
			c7.5,0,13.1,1.9,16.4,5.8c3.4,3.9,5.2,9,5.2,15.5v55.8c0,6.5-1.7,11.6-5.2,15.5c-3.4,3.9-8.8,5.8-16.4,5.8h-29.1v-5.2
			c0-1.9,0.2-3.4,0.9-4.3c0.4-1.1,1.3-1.7,2.2-2.2c1.1-0.4,1.5-1.3,1.5-2.8V-3c0-1.5-0.6-2.4-1.7-3c-1.9-0.9-2.8-2.8-2.8-6v-5.6
			H420.8z"/>
	</g>
	<g>
		<rect x="383.2" y="-20" fill="none" width="542.6" height="100.8"/>
		<path fill="#FFFFFF" d="M477.1,42.9c1.1,0,1.7-0.4,1.5-1.5l-3.2-18.1c-0.4-2.4-0.9-4.5-1.1-6.7c-0.4-2.2-0.6-4.1-1.1-6
			c-0.2-1.7-0.6-3.2-0.6-4.3c-0.2-1.1-0.2-1.7-0.2-1.7h-0.2c0,0-0.2,1.1-0.4,2.8c-0.2,1.7-0.6,3.9-1.1,6.5s-0.9,5.6-1.5,8.6
			c-0.4,3-1.1,6-1.5,8.8c-0.4,2.6-0.9,5-1.1,6.9s-0.4,3-0.4,3.2c0,0.6,0,1.1,0.2,1.1c0.2,0.2,0.9,0.2,1.7,0.2h4.3h4.7
			C477.1,42.7,477.1,42.9,477.1,42.9z M503.5,69.8c0.6,0.4,1.3,1.1,1.9,2.2c0.7,0.8,1.1,2.1,1.1,3.6v5.2h-24.3v-4.7
			c0-1.5,0.2-2.6,0.4-3.4c0.2-0.9,0.6-1.5,1.1-1.9c0.4-0.4,0.9-0.9,1.1-1.5c0.4-0.4,0.4-1.1,0.4-1.9c-0.4-2.4-0.6-4.3-0.9-5.8
			c-0.2-1.5-0.4-2.8-0.4-3.7c-0.2-0.9-0.4-1.5-0.6-1.9c-0.2-0.4-0.9-0.6-1.3-0.6h-1.1h-11c-0.9,0-1.3,0-1.7,0.2s-0.6,0.6-0.6,1.5
			c0,0.4-0.2,1.3-0.2,2.4s-0.2,2.4-0.4,3.7c-0.2,1.5-0.4,3-0.4,4.5c0,1.1,0.2,1.7,0.4,2.2c0.2,0.4,0.6,1.1,0.9,1.5
			c0.2,0.4,0.6,1.1,0.9,1.9c0.2,0.6,0.4,1.7,0.4,3.2v4.7h-24.1v-5.4c0-1.3,0.2-2.4,0.6-3s0.9-1.3,1.5-1.9c0.4-0.4,1.1-1.1,1.7-1.5
			c0.6-0.4,1.1-1.1,1.3-1.9l7.3-34.7c0.9-4.3,1.7-8.6,2.8-12.7c0.9-4.1,1.7-8,2.4-11.2c0.6-3.2,1.3-6,1.7-8c0.4-2.2,0.6-3.2,0.6-3.2
			v-1.3c0-0.6-0.2-1.3-0.6-1.7c-0.4-0.4-0.9-0.9-1.3-1.5s-0.9-1.3-1.3-2.2c-0.4-0.9-0.6-2.2-0.6-3.9v-4.7c4.7,0,8.4,0,11.4,0
			s5.4,0.2,7.1,0.4c1.7,0.4,3,0.9,3.9,1.7c0.9,0.9,1.5,2.2,1.9,3.7c0,0.4,0.4,1.7,0.9,4.1c0.4,2.4,1.1,5.4,1.9,9.3
			c0.9,3.7,1.7,8,2.6,12.7c0.9,4.7,1.9,9.5,2.8,14.2c2.4,11.4,5,24.1,8,38.3c0.2,0.6,0.4,1.3,0.9,1.7
			C502.6,69.2,503.1,69.4,503.5,69.8"/>
	</g>
	<g>
		<rect x="383.2" y="-20" fill="none" width="542.6" height="100.8"/>
		<path fill="#FFFFFF" d="M558-17.8v5.6c0,1.5-0.4,2.8-1.1,3.7c-0.6,0.9-1.3,1.7-1.9,2.2c-0.4,0.2-0.9,0.6-1.1,1.1
			c-0.2,0.4-0.6,1.1-0.6,1.7c-2.9,15-5.2,28.3-7.4,40.4c-0.9,5.2-1.9,10.1-2.8,14.9c-0.9,5-1.5,9.3-2.4,13.1
			c-0.6,3.9-1.3,6.9-1.7,9.3s-0.6,3.4-0.6,3.7c-0.4,0.9-0.9,1.5-1.3,1.9c-0.4,0.6-1.1,0.9-1.7,0.9h-15.5c-0.9,0-1.5-0.2-1.9-0.9
			c-0.4-0.4-0.9-1.5-1.3-2.8L503.1-3.4c-0.2-0.9-0.4-1.5-0.6-1.9c-0.3-0.5-0.7-0.7-1.4-0.9c-0.6-0.4-1.3-1.1-1.9-2.2
			c-0.7-1-1.1-2.3-1.1-3.8v-5.6H522v5.6c0,1.5-0.2,2.8-0.9,3.9c-0.6,0.9-1.3,1.7-1.9,2.2c-0.9,0.4-1.1,1.3-0.6,2.8l9.3,69.1
			l9.9-69.1c0-1.5-0.4-2.4-1.1-2.8c-0.6-0.4-1.3-1.1-1.9-2.2c-0.7-0.9-0.9-2.2-0.9-3.9v-5.6H558z"/>
	</g>
	<g>
		<rect x="383.2" y="-20" fill="none" width="542.6" height="100.8"/>
		<path fill="#FFFFFF" d="M582.7,66.6c0,0.9,0.2,1.5,0.4,1.9c0.2,0.4,0.6,0.6,1.1,1.1c0.6,0.4,1.5,1.3,2.2,2.2
			c0.7,0.9,1.1,2.2,1.1,3.7v5.6h-24.8v-5.6c0-1.5,0.4-2.8,1.1-3.7c0.7-0.9,1.5-1.7,2.2-2.2c0.4-0.4,0.6-0.6,0.9-1.1
			c0.2-0.4,0.4-0.9,0.4-1.5v-0.2v-70c0-0.9-0.2-1.5-0.4-1.9s-0.6-0.6-0.9-1.1c-0.6-0.4-1.5-1.3-2.2-2.2c-0.7-0.8-1.1-2.1-1.1-3.6
			v-5.6H587v5.6c0,1.5-0.4,2.8-1.1,3.7c-0.6,0.9-1.5,1.7-2.2,2.2c-0.4,0.4-0.9,0.6-1.1,1.1c0,0.4,0,1.1,0,1.9L582.7,66.6L582.7,66.6
			z"/>
	</g>
	<g>
		<rect x="383.2" y="-20" fill="none" width="542.6" height="100.8"/>
		<path fill="#FFFFFF" d="M626.9,3.5c0-1.1,0-2.2-0.2-3.2s-0.4-1.9-0.9-2.6c-0.4-0.6-1.1-1.3-1.9-1.7c-0.9-0.4-1.9-0.6-3.4-0.6h-7.4
			c-0.6,0-1.1,0.2-1.3,0.6c-0.2,0.4-0.4,0.9-0.4,1.3v69.3c0,1.3,0.6,1.9,1.9,1.9h7.3c1.5,0,2.6-0.2,3.4-0.6s1.5-1.1,1.9-1.9
			c0.4-0.6,0.6-1.7,0.9-2.6c0.2-1.1,0.2-1.9,0.2-3L626.9,3.5L626.9,3.5z M620.6-17.6c7.5,0,13.1,1.9,16.4,5.8
			c3.4,3.9,5.2,9,5.2,15.5v55.8c0,6.5-1.7,11.6-5.2,15.5c-3.4,3.9-8.8,5.8-16.4,5.8h-29v-5.2c0-1.9,0.2-3.4,0.9-4.3
			c0.4-1.1,1.3-1.7,2.2-2.2c1.1-0.4,1.5-1.3,1.5-2.8V-3c0-1.5-0.6-2.4-1.7-3c-1.9-0.9-2.8-3-2.8-6v-5.6H620.6z"/>
	</g>
	<g>
		<rect x="383.2" y="-20" fill="none" width="542.6" height="100.8"/>
		<path fill="#00783E" d="M689,20.7c0,0.9,0.4,1.5,1.5,1.5h6c2.8,0,4.5-0.9,5.2-2.4c0.6-1.5,1.1-3.9,1.1-6.9v-11
			c0-3-0.4-5.2-1.1-6.2S699.2-6,696.5-6h-6c-0.9,0-1.5,0.4-1.5,1.5V20.7z M704,44.2v-4.3c0-1.3-0.2-2.4-0.4-3.2
			c-0.2-0.9-0.6-1.5-1.5-1.9c-0.6-0.4-1.7-0.6-3.2-0.6h-8.2c-1.3,0-1.9,0.6-1.9,1.9v29.7c0,1.3,0.4,1.9,1.5,1.9h7.1
			c2.8,0,4.5-0.6,5.2-1.9c0.6-1.3,1.1-3.4,1.1-6.5V44.2H704z M673.4,65.1V-4.1c0-1.5-0.4-2.4-1.5-2.8c-0.9-0.4-1.5-1.1-2.2-2.2
			c-0.4-1.1-0.9-2.6-0.9-4.3v-5.3h27.3c7.5,0,12.9,1.9,16.4,5.6c3.4,3.7,5.2,8.8,5.2,15.3v11.4c0,2.8-0.2,5.2-0.9,7.3
			c-0.6,2.2-1.7,3.9-3.2,5.4c-0.4,0.4-0.9,0.9-0.9,1.5c0,0.4,0.4,1.1,1.1,1.5c1.9,1.5,3.4,3.4,4.1,6c0.6,2.4,1.1,5.2,1.1,8.4v15.1
			c0,6.5-1.7,11.6-5.2,15.5c-3.4,3.9-8.8,5.8-16.4,5.8h-24.3L673.4,65.1z"/>
	</g>
	<g>
		<rect x="383.2" y="-20" fill="none" width="542.6" height="100.8"/>
		<path fill="#00783E" d="M745.4,65.5c0,0.9,0.2,1.5,0.4,1.9s0.6,0.6,1.1,1.1c0.6,0.4,1.5,1.3,2.2,2.2c0.6,0.9,1.1,2.2,1.1,3.7V80
			h-24.5v-5.6c0-1.5,0.4-2.8,1.1-3.7c0.6-0.9,1.5-1.7,2.2-2.2c0.4-0.4,0.6-0.6,0.9-1.1c0.2-0.4,0.4-0.9,0.4-1.5v-0.2v-70
			c0-0.9-0.2-1.5-0.4-1.9c-0.2-0.4-0.6-0.6-0.9-1.1c-0.6-0.4-1.5-1.3-2.2-2.2c-0.6-0.9-1.1-2.2-1.1-3.7v-5.5h24.5v5.6
			c0,1.5-0.4,2.8-1.1,3.7c-0.6,0.9-1.5,1.7-2.2,2.2c-0.4,0.4-0.9,0.6-1.1,1.1c-0.2,0.4-0.4,0.9-0.4,1.9V65.5z"/>
	</g>
	<g>
		<rect x="383.2" y="-20" fill="none" width="542.6" height="100.8"/>
		<path fill="#00783E" d="M788.9,2.4c0-2.8-0.9-4.7-2.4-6.2S783.1-6,780.9-6h-5.2c-1.1,0-1.5,0.6-1.5,1.9v25.9
			c0,0.6,0.2,1.3,0.4,1.5c0.2,0.2,0.6,0.4,1.1,0.4h6.7c2.8,0,4.5-0.6,5.4-2.2c0.9-1.5,1.3-3.4,1.3-6V2.4H788.9z M805.4,67.2
			c0.6,0.4,1.3,1.1,1.9,1.9c0.4,0.9,0.9,1.9,0.9,3.4v7.1h-12.7c-2.4,0-4.1-0.6-5.2-2.2c-1.1-1.5-1.7-3-1.7-5V43.5
			c0-2.6-0.4-4.5-1.5-5.6c-1.1-1.3-2.8-1.9-5.6-1.9h-5.6c-1.1,0-1.7,0.6-1.7,1.9v27.6c0,0.9,0.2,1.5,0.4,1.9s0.6,0.6,1.1,0.9
			c0.6,0.4,1.5,1.3,2.2,2.2c0.6,0.9,1.1,2.2,1.1,3.7v5.6h-24.3v-5.6c0-1.5,0.4-2.8,1.1-3.7c0.6-0.9,1.5-1.7,2.2-2.2
			c0.4-0.2,0.6-0.6,0.9-0.9c0.2-0.4,0.4-0.9,0.4-1.7v-70V-6c0-0.4-0.2-0.6-0.6-0.9c-0.6-0.4-1.5-1.1-2.4-2.2
			c-0.9-0.9-1.3-2.4-1.3-4.1v-5.5h27.8c3.2,0,6.2,0.6,8.8,1.7s5,2.6,6.9,4.5c1.9,1.9,3.2,4.3,4.3,6.9c1.1,2.6,1.5,5.6,1.5,8.8v12.1
			c0,2.8-0.4,5.4-1.3,7.8c-0.9,2.4-2.2,4.3-3.9,5.8c-1.1,0.9-1.1,1.7,0.2,2.6c1.9,1.5,3.2,3.7,3.9,6.2c0.6,2.6,0.9,5.6,0.9,8.8v18.1
			c0,0.9,0.2,1.3,0.4,1.7C804.8,66.8,805,67,805.4,67.2"/>
	</g>
	<g>
		<rect x="383.2" y="-20" fill="none" width="542.6" height="100.8"/>
		<path fill="#00783E" d="M836.7,80.8c-3.2,0-6.2-0.4-9.3-1.5c-2.8-0.9-5.4-2.4-7.5-4.1c-2.2-1.7-3.9-4.1-5.2-6.7
			c-1.3-2.6-1.9-5.6-1.9-9V1.1c0-3.2,0.6-6.2,1.9-9c1.3-2.6,3-5,5.2-6.7s4.7-3.2,7.5-4.1s6-1.5,9.3-1.5c3.2,0,6.2,0.4,9,1.5
			c2.8,0.9,5.4,2.4,7.5,4.1c2.1,1.7,3.9,4.1,5.2,6.7s1.9,5.6,1.9,9v11.2h-8c-2.2,0-4.1-0.6-5.6-1.9s-2.4-3-2.4-5.2v-5
			c0-1.7-0.9-3.2-2.4-5s-3.4-2.4-5.8-2.4c-2.4,0-4.3,0.9-5.8,2.4c-1.5,1.7-2.2,3.2-2.2,5v61.4c0,1.5,0.9,2.8,2.4,4.3s3.7,2.2,6,2.2
			c1.3,0,2.4-0.2,3.4-0.6c1.1-0.4,1.9-1.1,2.6-1.7c0.6-0.6,1.3-1.5,1.7-2.2c0.4-0.9,0.6-1.5,0.6-2.4V56c0-1.9,0.6-3.9,1.7-5.2
			c1.3-1.5,3-2.2,5.2-2.2h8.4v11c0,3.2-0.6,6.2-1.9,9c-1.3,2.6-3,5-5.2,6.7s-4.7,3.2-7.5,4.1S839.9,80.8,836.7,80.8"/>
	</g>
	<g>
		<rect x="383.2" y="-20" fill="none" width="542.6" height="100.8"/>
		<path fill="#00783E" d="M921.1-13.1L921.1-13.1c0,2.4-1.1,4.3-3,6c-0.4,0.2-0.6,0.4-0.9,0.9c-0.2,0.2-0.4,0.6-0.4,1.3v0.4v70
			c0,0.9,0.2,1.5,0.4,1.9c0.2,0.4,0.6,0.6,1.1,1.1c0.6,0.4,1.3,1.3,1.9,2.2c0.6,0.9,1.1,2.2,1.1,3.7V80h-24.5v-5.6
			c0-1.5,0.4-2.8,1.1-3.7c0.6-0.9,1.5-1.7,2.2-2.2c0.4-0.4,0.9-0.6,1.1-1.1c0.2-0.2,0.4-0.9,0.4-1.5V36.6c0-1.3-0.6-1.9-1.9-1.9
			h-12.9c-0.4,0-1.1,0.2-1.3,0.4c-0.4,0.4-0.6,0.9-0.6,1.3V65c0,0.9,0.2,1.3,0.4,1.7c0.2,0.4,0.6,0.6,0.9,1.1
			c0.6,0.4,1.5,1.3,2.2,2.2c0.6,0.9,1.1,2.2,1.1,3.7v5.6h-24.3v-5.6c0-1.5,0.4-2.8,1.1-3.7c0.6-0.9,1.5-1.7,2.2-2.2
			c0.4-0.4,0.9-0.6,1.1-1.1c0.2-0.4,0.4-0.9,0.4-1.7V-4.3c0-0.9-0.2-1.5-0.4-1.9s-0.6-0.6-1.1-1.1c-1.9-1.3-3-3.2-3.2-5.8v-5.6h24.3
			v0.2v5.6v0.2c0,1.1-0.2,2.2-0.9,3.2c-0.6,1.1-1.3,1.9-2.4,2.6c-0.4,0.4-0.6,0.6-0.9,1.1c-0.2,0.2-0.4,0.9-0.4,1.5v24.8
			c0,0.6,0.2,1.3,0.6,1.5c0.4,0.2,0.9,0.4,1.3,0.4H900c0.6,0,1.1-0.2,1.3-0.6c0.2-0.4,0.4-0.9,0.4-1.3V-4.3c0-0.9-0.2-1.5-0.4-1.9
			c-0.2-0.4-0.6-0.6-1.1-1.1c-1.9-1.5-3-3.2-3.2-5.8v-5.6h24.5v5.6H921.1z"/>
	</g>
	<g>
		<rect x="383.2" y="-20" fill="none" width="542.6" height="100.8"/>
		<path fill="#FFFFFF" d="M697.2,20.9c0,0.9,0.4,1.5,1.5,1.5h6c2.8,0,4.5-0.9,5.2-2.4c0.6-1.5,1.1-3.9,1.1-6.9v-11
			c0-3-0.4-5.2-1.1-6.2s-2.4-1.7-5.2-1.7h-6c-0.9,0-1.5,0.4-1.5,1.5V20.9z M712.4,44.2v-4.3c0-1.3-0.2-2.4-0.4-3.2
			c-0.2-0.9-0.6-1.5-1.5-1.9c-0.6-0.4-1.7-0.6-3.2-0.6h-8.2c-1.3,0-1.9,0.6-1.9,1.9v29.7c0,1.3,0.4,1.9,1.5,1.9h7.1
			c2.8,0,4.5-0.6,5.2-1.9c0.6-1.3,1.1-3.4,1.1-6.5V44.2H712.4z M681.8,65.1V-4.1c0-1.5-0.4-2.4-1.5-2.8c-0.9-0.4-1.5-1.1-2.2-2.2
			c-0.4-1.1-0.9-2.6-0.9-4.3v-5.3h27.3c7.5,0,12.9,1.9,16.4,5.6c3.4,3.7,5.2,8.8,5.2,15.3v11.4c0,2.8-0.2,5.2-0.9,7.3
			c-0.6,2.2-1.7,3.9-3.2,5.4c-0.4,0.4-0.9,0.9-0.9,1.5c0,0.4,0.4,1.1,1.1,1.5c1.9,1.5,3.4,3.4,4.1,6c0.6,2.4,1.1,5.2,1.1,8.4v15.1
			c0,6.5-1.7,11.6-5.2,15.5c-3.4,3.9-8.8,5.8-16.4,5.8h-24.1L681.8,65.1L681.8,65.1z"/>
	</g>
	<g>
		<rect x="383.2" y="-20" fill="none" width="542.6" height="100.8"/>
		<path fill="#FFFFFF" d="M753.9,65.5c0,0.9,0.2,1.5,0.4,1.9c0.2,0.4,0.6,0.6,1.1,1.1c0.6,0.4,1.5,1.3,2.2,2.2
			c0.6,0.9,1.1,2.2,1.1,3.7V80h-24.6v-5.6c0-1.5,0.4-2.8,1.1-3.7c0.6-0.9,1.5-1.7,2.2-2.2c0.4-0.4,0.6-0.6,0.9-1.1
			c0.2-0.4,0.4-0.9,0.4-1.5v-0.2v-70c0-0.9-0.2-1.5-0.4-1.9c-0.2-0.4-0.6-0.6-0.9-1.1c-0.6-0.4-1.5-1.3-2.2-2.2
			c-0.6-0.9-1.1-2.2-1.1-3.7v-5.5h24.5v5.6c0,1.5-0.4,2.8-1.1,3.7c-0.6,0.9-1.5,1.7-2.2,2.2c-0.4,0.4-0.9,0.6-1.1,1.1
			c-0.2,0.4-0.4,0.9-0.4,1.9v69.7H753.9z"/>
	</g>
	<g>
		<rect x="383.2" y="-20" fill="none" width="542.6" height="100.8"/>
		<path fill="#FFFFFF" d="M797.4,2.4c0-2.8-0.9-4.7-2.4-6.2S791.6-6,789.4-6h-5.2c-1.1,0-1.5,0.6-1.5,1.9v25.9
			c0,0.6,0.2,1.3,0.4,1.5c0.2,0.2,0.6,0.4,1.1,0.4h6.7c2.8,0,4.5-0.6,5.4-2.2c0.9-1.5,1.3-3.4,1.3-6V2.4H797.4z M814,67.2
			c0.6,0.4,1.3,1.1,1.9,1.9c0.4,0.9,0.9,1.9,0.9,3.4v7.1h-12.7c-2.4,0-4.1-0.6-5.2-2.2c-1.1-1.5-1.7-3-1.7-5V43.5
			c0-2.6-0.4-4.5-1.5-5.6c-1.1-1.3-2.8-1.9-5.6-1.9h-5.6c-1.1,0-1.7,0.6-1.7,1.9v27.6c0,0.9,0.2,1.5,0.4,1.9
			c0.2,0.4,0.6,0.6,1.1,0.9c0.6,0.4,1.5,1.3,2.2,2.2c0.6,0.9,1.1,2.2,1.1,3.7v5.6h-24.3v-5.6c0-1.5,0.4-2.8,1.1-3.7
			c0.6-0.9,1.5-1.7,2.2-2.2c0.4-0.2,0.6-0.6,0.9-0.9c0.2-0.4,0.4-0.9,0.4-1.7v-70V-6c0-0.4-0.2-0.6-0.6-0.9
			c-0.6-0.4-1.5-1.1-2.4-2.2c-0.9-0.9-1.3-2.4-1.3-4.1v-5.5h27.8c3.2,0,6.2,0.6,8.8,1.7s5,2.6,6.9,4.5c1.9,1.9,3.2,4.3,4.3,6.9
			c1.1,2.6,1.5,5.6,1.5,8.8v12.1c0,2.8-0.4,5.4-1.3,7.8c-0.9,2.4-2.2,4.3-3.9,5.8c-1.1,0.9-1.1,1.7,0.2,2.6c1.9,1.5,3.2,3.7,3.9,6.2
			c0.6,2.6,0.9,5.6,0.9,8.8v18.1c0,0.9,0.2,1.3,0.4,1.7C813.1,66.8,813.6,67,814,67.2"/>
	</g>
	<g>
		<rect x="383.2" y="-20" fill="none" width="542.6" height="100.8"/>
		<path fill="#FFFFFF" d="M845,80.8c-3.2,0-6.2-0.4-9.3-1.5c-2.8-0.9-5.4-2.4-7.5-4.1c-2.2-1.7-3.9-4.1-5.2-6.7
			c-1.3-2.6-1.9-5.6-1.9-9V1.1c0-3.2,0.6-6.2,1.9-9c1.3-2.6,3-5,5.2-6.7s4.7-3.2,7.5-4.1s6-1.5,9.3-1.5c3.2,0,6.2,0.4,9,1.5
			c2.8,0.9,5.4,2.4,7.5,4.1c2.1,1.7,3.9,4.1,5.2,6.7s1.9,5.6,1.9,9v11.2h-8c-2.2,0-4.1-0.6-5.6-1.9s-2.4-3-2.4-5.2v-5
			c0-1.7-0.9-3.2-2.4-5c-1.5-1.7-3.4-2.4-5.8-2.4c-2.4,0-4.3,0.9-5.8,2.4c-1.5,1.7-2.2,3.2-2.2,5v61.4c0,1.5,0.9,2.8,2.4,4.3
			s3.7,2.2,6,2.2c1.3,0,2.4-0.2,3.4-0.6s1.9-1.1,2.6-1.7c0.6-0.6,1.3-1.5,1.7-2.2c0.4-0.9,0.6-1.5,0.6-2.4V56c0-1.9,0.6-3.9,1.7-5.2
			c1.3-1.5,3-2.2,5.2-2.2h8.4v11c0,3.2-0.6,6.2-1.9,9c-1.3,2.6-3,5-5.2,6.7s-4.7,3.2-7.5,4.1C851.3,80.4,848.2,80.8,845,80.8"/>
	</g>
	<g>
		<rect x="383.2" y="-20" fill="none" width="542.6" height="100.8"/>
		<path fill="#FFFFFF" d="M929.4-13.1L929.4-13.1c0,2.4-1.1,4.3-3,6c-0.4,0.2-0.6,0.4-0.9,0.9c-0.2,0.2-0.4,0.6-0.4,1.3v0.4v70
			c0,0.9,0.2,1.5,0.4,1.9c0.2,0.4,0.6,0.6,1.1,1.1c0.6,0.4,1.3,1.3,1.9,2.2c0.6,0.9,1.1,2.2,1.1,3.7V80h-24.5v-5.6
			c0-1.5,0.4-2.8,1.1-3.7c0.6-0.9,1.5-1.7,2.2-2.2c0.4-0.4,0.9-0.6,1.1-1.1c0.2-0.2,0.4-0.9,0.4-1.5V36.6c0-1.3-0.6-1.9-1.9-1.9
			h-12.9c-0.4,0-1.1,0.2-1.3,0.4c-0.4,0.4-0.6,0.9-0.6,1.3V65c0,0.9,0.2,1.3,0.4,1.7c0.2,0.4,0.6,0.6,0.9,1.1
			c0.6,0.4,1.5,1.3,2.2,2.2c0.6,0.9,1.1,2.2,1.1,3.7v5.6h-24.3v-5.6c0-1.5,0.4-2.8,1.1-3.7c0.6-0.9,1.5-1.7,2.2-2.2
			c0.4-0.4,0.9-0.6,1.1-1.1c0.2-0.4,0.4-0.9,0.4-1.7V-4.3c0-0.9-0.2-1.5-0.4-1.9s-0.6-0.6-1.1-1.1c-1.9-1.3-3-3.2-3.2-5.8v-5.6h23.5
			v0.2v5.6v0.2c0,1.1-0.2,2.2-0.9,3.2c-0.7,1-1.3,1.9-2.4,2.6c-0.4,0.4-0.6,0.6-0.9,1.1c-0.2,0.2-0.4,0.9-0.4,1.5v24.8
			c0,0.6,0.2,1.3,0.6,1.5c0.4,0.2,0.9,0.4,1.3,0.4h13.1c0.6,0,1.1-0.2,1.3-0.6c0.2-0.4,0.4-0.9,0.4-1.3V-4.3c0-0.9-0.2-1.5-0.4-1.9
			c-0.2-0.4-0.6-0.6-1.1-1.1c-1.9-1.5-3-3.2-3.2-5.8v-5.6h24.8v5.6H929.4z"/>
	</g>
</g>
</svg>
