<?xml version="1.0" encoding="utf-8"?>
<!-- Generator: Adobe Illustrator 18.1.1, SVG Export Plug-In . SVG Version: 6.00 Build 0)  -->
<!DOCTYPE svg PUBLIC "-//W3C//DTD SVG 1.1//EN" "http://www.w3.org/Graphics/SVG/1.1/DTD/svg11.dtd">
<svg version="1.1" id="Layer_1" xmlns="http://www.w3.org/2000/svg" xmlns:xlink="http://www.w3.org/1999/xlink" x="0px" y="0px"
	 width="557.1px" height="101.5px" viewBox="375.9 -20.3 557.1 101.5" enable-background="new 375.9 -20.3 557.1 101.5"
	 xml:space="preserve">
<g>
	<g>
		<rect x="381.3" y="-20.1" fill="none" width="542.6" height="100.8"/>
		<path fill="#00783E" d="M416.6,3.4c0-1.1,0-2.2-0.2-3.2c-0.2-1.1-0.4-1.9-0.9-2.6c-0.4-0.6-1.1-1.3-1.9-1.7
			C413-4.7,411.9-5,410.4-5h-7.3c-0.4,0-1.1,0.2-1.3,0.6c-0.2,0.4-0.4,0.9-0.4,1.3v69.3c0,1.3,0.6,1.9,1.9,1.9h7.3
			c1.5,0,2.6-0.2,3.4-0.6c0.9-0.4,1.5-1.1,1.9-1.9c0.4-0.6,0.6-1.7,0.9-2.6c0.2-1.1,0.2-1.9,0.2-3V3.4H416.6z M410.3-17.7
			c7.5,0,13.1,1.9,16.4,5.8c3.4,3.9,5.2,9,5.2,15.5v55.8c0,6.5-1.7,11.6-5.2,15.5c-3.4,3.9-8.8,5.8-16.4,5.8h-29.1v-5.2
			c0-1.9,0.2-3.4,0.9-4.3c0.4-1.1,1.3-1.7,2.2-2.2c1.1-0.4,1.5-1.3,1.5-2.8V-3.1c0-1.5-0.6-2.4-1.7-3c-1.9-0.9-2.8-2.8-2.8-6v-5.6
			H410.3z"/>
	</g>
	<g>
		<rect x="381.3" y="-20.1" fill="none" width="542.6" height="100.8"/>
		<path fill="#00783E" d="M470.4,42.8c1.1,0,1.7-0.4,1.5-1.5l-3.2-18.1c-0.4-2.4-0.9-4.5-1.3-6.9c-0.4-2.2-0.6-4.1-1.1-6
			c-0.2-1.7-0.6-3.2-0.6-4.3c-0.2-1.1-0.2-1.7-0.2-1.7h-0.2c0,0-0.2,1.1-0.4,2.8s-0.6,3.9-1.1,6.5c-0.4,2.6-0.9,5.6-1.5,8.6
			c-0.4,3-1.1,6-1.5,8.8c-0.4,2.8-0.9,5-1.3,6.9c-0.2,1.9-0.4,3-0.4,3.2c0,0.6,0,1.1,0.2,1.3c0.2,0.2,0.9,0.2,1.7,0.2h4.3h5.2
			L470.4,42.8C470.5,42.8,470.4,42.8,470.4,42.8z M493.3,69.7c0.6,0.4,1.3,1.1,1.9,2.2c0.6,0.9,1.1,2.2,1.1,3.7v5.2H472v-4.7
			c0-1.5,0.2-2.6,0.4-3.4c0.2-0.9,0.6-1.5,1.1-1.9c0.4-0.4,0.9-0.9,1.1-1.5c0.4-0.4,0.4-1.1,0.4-1.9c-0.4-2.4-0.6-4.3-0.9-5.8
			c-0.2-1.5-0.4-2.8-0.4-3.7c-0.2-0.9-0.4-1.5-0.6-1.9s-0.9-0.6-1.3-0.6h-1.2h-11c-0.9,0-1.3,0-1.7,0.2c-0.4,0.2-0.6,0.6-0.6,1.5
			c0,0.4-0.2,1.3-0.2,2.4c0,1.1-0.2,2.4-0.4,3.7c-0.2,1.5-0.4,3-0.4,4.5c0,0.9,0.2,1.7,0.4,2.2c0.2,0.4,0.6,1.1,0.9,1.5
			c0.2,0.4,0.6,1.1,0.9,1.9c0.2,0.6,0.4,1.7,0.4,3.2v4.7h-24.1v-5.5c0-1.3,0.2-2.4,0.6-3c0.4-0.6,0.9-1.3,1.5-1.9
			c0.4-0.4,1.1-1.1,1.7-1.5c0.6-0.4,1.1-1.3,1.3-1.9l7.3-34.7c0.9-4.3,1.7-8.6,2.8-12.7c0.9-4.1,1.7-8,2.4-11.2c0.6-3.2,1.3-6,1.7-8
			c0.2-2.6,0.4-3.7,0.4-3.9v-0.6c0-0.6-0.2-1.3-0.6-1.7c-0.4-0.4-0.9-0.9-1.3-1.5c-0.4-0.6-0.9-1.3-1.3-2.2
			c-0.5-0.9-0.7-2.2-0.7-3.9v-4.7c4.7,0,8.4,0,11.4,0s5.4,0.2,7.1,0.4c1.7,0.4,3,0.9,3.9,1.7c0.9,0.9,1.5,2.2,1.9,3.7
			c0,0.4,0.4,1.7,0.9,4.1s1.1,5.4,1.9,9.3c0.9,3.7,1.7,8,2.6,12.7c0.9,4.7,1.9,9.5,2.8,14.2c2.4,11.4,5,24.1,8,38.3
			c0.2,0.6,0.4,1.3,0.9,1.7C492.4,69.1,492.8,69.3,493.3,69.7"/>
	</g>
	<g>
		<rect x="381.3" y="-20.1" fill="none" width="542.6" height="100.8"/>
		<path fill="#00783E" d="M547.7-17.9v5.6c0,1.5-0.4,2.8-1.1,3.7c-0.6,0.9-1.3,1.7-1.9,2.2c-0.4,0.2-0.9,0.6-1.1,1.1
			S543-4.2,543-3.6c-2.8,15.1-5.2,28.4-7.3,40.5c-0.9,5.2-1.9,10.1-2.8,14.9c-0.9,5-1.5,9.3-2.4,13.1c-0.6,3.9-1.3,6.9-1.7,9.3
			s-0.6,3.4-0.6,3.7c-0.4,0.9-0.9,1.5-1.3,1.9c-0.4,0.6-1.1,0.9-1.7,0.9h-15.6c-0.9,0-1.5-0.2-1.9-0.9c-0.4-0.4-0.9-1.5-1.3-2.8
			L492.8-3.5c-0.2-0.9-0.4-1.5-0.6-1.9s-0.6-0.6-1.3-0.9c-0.6-0.4-1.3-1.1-1.9-2.2c-0.6-1.1-1.1-2.4-1.1-3.9v-5.5h23.9v5.6
			c0,1.5-0.2,2.8-0.9,3.9c-0.6,0.8-1.3,1.7-1.9,2.1c-0.9,0.4-1.1,1.3-0.6,2.8l9.2,69.1l9.9-69.1c0-1.5-0.4-2.4-1.1-2.8
			c-0.6-0.4-1.3-1.1-1.9-2.2c-0.6-0.9-1.1-2.2-1.1-3.7v-5.7C523.4-17.9,547.7-17.9,547.7-17.9z"/>
	</g>
	<g>
		<rect x="381.3" y="-20.1" fill="none" width="542.6" height="100.8"/>
		<path fill="#00783E" d="M572.3,66.5c0,0.9,0.2,1.5,0.4,1.9s0.6,0.6,1.1,1.1c0.6,0.4,1.5,1.3,2.2,2.2c0.7,0.9,1.1,2.2,1.1,3.7v5.6
			h-24.8v-5.6c0-1.5,0.4-2.8,1.1-3.7c0.7-0.9,1.5-1.7,2.2-2.2c0.4-0.4,0.6-0.6,0.9-1.1s0.4-0.9,0.4-1.5v-0.2v-70
			c0-0.9-0.2-1.5-0.4-1.9s-0.6-0.6-0.9-1.1c-0.6-0.4-1.5-1.3-2.2-2.2c-0.6-0.9-1.1-2.2-1.1-3.7v-5.5h24.5v5.6c0,1.5-0.4,2.8-1.1,3.7
			c-0.6,0.9-1.5,1.7-2.2,2.2c-0.4,0.4-0.9,0.6-1.1,1.1c-0.2,0.4-0.4,0.9-0.4,1.9v69.8L572.3,66.5L572.3,66.5z"/>
	</g>
	<g>
		<rect x="381.3" y="-20.1" fill="none" width="542.6" height="100.8"/>
		<path fill="#00783E" d="M616.6,3.4c0-1.1,0-2.2-0.2-3.2s-0.4-1.9-0.9-2.6c-0.4-0.6-1.1-1.3-1.9-1.7c-0.9-0.6-1.9-0.9-3.2-0.9h-7.3
			c-0.6,0-1.1,0.2-1.3,0.6s-0.4,0.9-0.4,1.3v69.3c0,1.3,0.6,1.9,1.9,1.9h7.3c1.5,0,2.6-0.2,3.4-0.6s1.5-1.1,1.9-1.9
			c0.4-0.6,0.6-1.7,0.9-2.6c0.2-1.1,0.2-1.9,0.2-3V3.4H616.6z M610.3-17.7c7.5,0,13.1,1.9,16.4,5.8c3.4,3.9,5.2,9,5.2,15.5v55.8
			c0,6.5-1.7,11.6-5.2,15.5c-3.4,3.9-8.8,5.8-16.4,5.8h-29.1v-5.2c0-1.9,0.2-3.4,0.9-4.3c0.4-1.1,1.3-1.7,2.2-2.2
			c1.1-0.4,1.5-1.3,1.5-2.8V-3.1c0-1.5-0.6-2.4-1.7-3c-1.9-0.9-2.8-3-2.8-6v-5.6H610.3z"/>
	</g>
	<g>
		<rect x="381.3" y="-20.1" fill="none" width="542.6" height="100.8"/>
		<path d="M425.1,3.4c0-1.1,0-2.2-0.2-3.2c-0.2-1.1-0.4-1.9-0.9-2.6c-0.4-0.6-1.1-1.3-1.9-1.7c-0.9-0.6-1.9-0.9-3.2-0.9h-7.3
			c-0.6,0-1.1,0.2-1.3,0.6c-0.2,0.4-0.4,0.9-0.4,1.3v69.3c0,1.3,0.6,1.9,1.9,1.9h7.3c1.5,0,2.6-0.2,3.4-0.6c0.9-0.4,1.5-1.1,1.9-1.9
			c0.4-0.6,0.6-1.7,0.9-2.6c0.2-1.1,0.2-1.9,0.2-3V3.4H425.1z M418.9-17.7c7.5,0,13.1,1.9,16.4,5.8c3.4,3.9,5.2,9,5.2,15.5v55.8
			c0,6.5-1.7,11.6-5.2,15.5c-3.4,3.9-8.8,5.8-16.4,5.8h-29.1v-5.2c0-1.9,0.2-3.4,0.9-4.3c0.4-1.1,1.3-1.7,2.2-2.2
			c1.1-0.4,1.5-1.3,1.5-2.8V-3.1c0-1.5-0.6-2.4-1.7-3c-1.9-0.9-2.8-2.8-2.8-6v-5.6H418.9z"/>
	</g>
	<g>
		<rect x="381.3" y="-20.1" fill="none" width="542.6" height="100.8"/>
		<path d="M475.2,42.8c1.1,0,1.7-0.4,1.5-1.5l-3.2-18.1c-0.4-2.4-0.9-4.5-1.1-6.7c-0.4-2.2-0.6-4.1-1.1-6c-0.2-1.7-0.6-3.2-0.6-4.3
			c-0.2-1.1-0.2-1.7-0.2-1.7h-0.2c0,0-0.2,1.1-0.4,2.8s-0.6,3.9-1.1,6.5s-0.9,5.6-1.5,8.6c-0.4,3-1.1,6-1.5,8.8
			c-0.4,2.6-0.9,5-1.1,6.9s-0.4,3-0.4,3.2c0,0.6,0,1.1,0.2,1.1c0.2,0.2,0.9,0.2,1.7,0.2h4.3h4.7C475.2,42.6,475.2,42.8,475.2,42.8z
			 M501.6,69.7c0.6,0.4,1.3,1.1,1.9,2.2c0.7,0.8,1.1,2.1,1.1,3.6v5.2h-24.3V76c0-1.5,0.2-2.6,0.4-3.4c0.2-0.9,0.6-1.5,1.1-1.9
			c0.4-0.4,0.9-0.9,1.1-1.5c0.4-0.4,0.4-1.1,0.4-1.9c-0.4-2.4-0.6-4.3-0.9-5.8c-0.2-1.5-0.4-2.8-0.4-3.7c-0.2-0.9-0.4-1.5-0.6-1.9
			s-0.9-0.6-1.3-0.6H479h-11c-0.9,0-1.3,0-1.7,0.2c-0.4,0.2-0.6,0.6-0.6,1.5c0,0.4-0.2,1.3-0.2,2.4c0,1.1-0.2,2.4-0.4,3.7
			c-0.2,1.5-0.4,3-0.4,4.5c0,1.1,0.2,1.7,0.4,2.2c0.2,0.4,0.6,1.1,0.9,1.5c0.2,0.4,0.6,1.1,0.9,1.9c0.2,0.6,0.4,1.7,0.4,3.2V81
			h-24.1v-5.4c0-1.3,0.2-2.4,0.6-3c0.4-0.6,0.9-1.3,1.5-1.9c0.4-0.4,1.1-1.1,1.7-1.5c0.6-0.4,1.1-1.1,1.3-1.9l7.3-34.7
			c0.9-4.3,1.7-8.6,2.8-12.7c0.9-4.1,1.7-8,2.4-11.2c0.6-3.2,1.3-6,1.7-8c0.4-2.2,0.6-3.2,0.6-3.2v-1.3c0-0.6-0.2-1.3-0.6-1.7
			c-0.4-0.4-0.9-0.9-1.3-1.5c-0.4-0.6-0.9-1.3-1.3-2.2c-0.4-0.9-0.6-2.2-0.6-3.9v-4.7c4.7,0,8.4,0,11.4,0s5.4,0.2,7.1,0.4
			c1.7,0.4,3,0.9,3.9,1.7c0.9,0.9,1.5,2.2,1.9,3.7c0,0.4,0.4,1.7,0.9,4.1c0.4,2.4,1.1,5.4,1.9,9.3c0.9,3.7,1.7,8,2.6,12.7
			c0.9,4.7,1.9,9.5,2.8,14.2c2.4,11.4,5,24.1,8,38.3c0.2,0.6,0.4,1.3,0.9,1.7C500.7,69.1,501.2,69.3,501.6,69.7"/>
	</g>
	<g>
		<rect x="381.3" y="-20.1" fill="none" width="542.6" height="100.8"/>
		<path d="M556.1-17.9v5.6c0,1.5-0.4,2.8-1.1,3.7c-0.6,0.9-1.3,1.7-1.9,2.2c-0.4,0.2-0.9,0.6-1.1,1.1c-0.2,0.4-0.6,1.1-0.6,1.7
			c-2.9,15-5.2,28.3-7.4,40.4c-0.9,5.2-1.9,10.1-2.8,14.9c-0.9,5-1.5,9.3-2.4,13.1c-0.6,3.9-1.3,6.9-1.7,9.3s-0.6,3.4-0.6,3.7
			c-0.4,0.9-0.9,1.5-1.3,1.9c-0.4,0.6-1.1,0.9-1.7,0.9H518c-0.9,0-1.5-0.2-1.9-0.9c-0.4-0.4-0.9-1.5-1.3-2.8L501.2-3.5
			c-0.2-0.9-0.4-1.5-0.6-1.9c-0.3-0.5-0.7-0.7-1.4-0.9c-0.6-0.4-1.3-1.1-1.9-2.2c-0.7-1-1.1-2.3-1.1-3.8v-5.6h23.9v5.6
			c0,1.5-0.2,2.8-0.9,3.9c-0.6,0.9-1.3,1.7-1.9,2.2c-0.9,0.4-1.1,1.3-0.6,2.8l9.3,69.1l9.9-69.1c0-1.5-0.4-2.4-1.1-2.8
			c-0.6-0.4-1.3-1.1-1.9-2.2c-0.7-0.9-0.9-2.2-0.9-3.9v-5.6C532-17.9,556.1-17.9,556.1-17.9z"/>
	</g>
	<g>
		<rect x="381.3" y="-20.1" fill="none" width="542.6" height="100.8"/>
		<path d="M580.8,66.5c0,0.9,0.2,1.5,0.4,1.9s0.6,0.6,1.1,1.1c0.6,0.4,1.5,1.3,2.2,2.2c0.7,0.9,1.1,2.2,1.1,3.7v5.6h-24.8v-5.6
			c0-1.5,0.4-2.8,1.1-3.7c0.7-0.9,1.5-1.7,2.2-2.2c0.4-0.4,0.6-0.6,0.9-1.1c0.2-0.4,0.4-0.9,0.4-1.5v-0.2v-70c0-0.9-0.2-1.5-0.4-1.9
			s-0.6-0.6-0.9-1.1c-0.6-0.4-1.5-1.3-2.2-2.2c-0.7-0.8-1.1-2.1-1.1-3.6v-5.6h24.3v5.6c0,1.5-0.4,2.8-1.1,3.7
			c-0.6,0.9-1.5,1.7-2.2,2.2c-0.4,0.4-0.9,0.6-1.1,1.1c0,0.4,0,1.1,0,1.9L580.8,66.5L580.8,66.5z"/>
	</g>
	<g>
		<rect x="381.3" y="-20.1" fill="none" width="542.6" height="100.8"/>
		<path d="M625,3.4c0-1.1,0-2.2-0.2-3.2s-0.4-1.9-0.9-2.6c-0.4-0.6-1.1-1.3-1.9-1.7c-0.9-0.4-1.9-0.6-3.4-0.6h-7.4
			c-0.6,0-1.1,0.2-1.3,0.6s-0.4,0.9-0.4,1.3v69.3c0,1.3,0.6,1.9,1.9,1.9h7.3c1.5,0,2.6-0.2,3.4-0.6s1.5-1.1,1.9-1.9
			c0.4-0.6,0.6-1.7,0.9-2.6c0.2-1.1,0.2-1.9,0.2-3L625,3.4L625,3.4z M618.7-17.7c7.5,0,13.1,1.9,16.4,5.8c3.4,3.9,5.2,9,5.2,15.5
			v55.8c0,6.5-1.7,11.6-5.2,15.5c-3.4,3.9-8.8,5.8-16.4,5.8h-29v-5.2c0-1.9,0.2-3.4,0.9-4.3c0.4-1.1,1.3-1.7,2.2-2.2
			c1.1-0.4,1.5-1.3,1.5-2.8V-3.1c0-1.5-0.6-2.4-1.7-3c-1.9-0.9-2.8-3-2.8-6v-5.6H618.7z"/>
	</g>
	<g>
		<rect x="381.3" y="-20.1" fill="none" width="542.6" height="100.8"/>
		<path fill="#00783E" d="M687.1,20.6c0,0.9,0.4,1.5,1.5,1.5h6c2.8,0,4.5-0.9,5.2-2.4c0.6-1.5,1.1-3.9,1.1-6.9v-11
			c0-3-0.4-5.2-1.1-6.2s-2.5-1.7-5.2-1.7h-6c-0.9,0-1.5,0.4-1.5,1.5V20.6z M702.1,44.1v-4.3c0-1.3-0.2-2.4-0.4-3.2
			c-0.2-0.9-0.6-1.5-1.5-1.9c-0.6-0.4-1.7-0.6-3.2-0.6h-8.2c-1.3,0-1.9,0.6-1.9,1.9v29.7c0,1.3,0.4,1.9,1.5,1.9h7.1
			c2.8,0,4.5-0.6,5.2-1.9c0.6-1.3,1.1-3.4,1.1-6.5V44.1H702.1z M671.5,65V-4.2c0-1.5-0.4-2.4-1.5-2.8c-0.9-0.4-1.5-1.1-2.2-2.2
			c-0.4-1.1-0.9-2.6-0.9-4.3v-5.3h27.3c7.5,0,12.9,1.9,16.4,5.6c3.4,3.7,5.2,8.8,5.2,15.3v11.4c0,2.8-0.2,5.2-0.9,7.3
			c-0.6,2.2-1.7,3.9-3.2,5.4c-0.4,0.4-0.9,0.9-0.9,1.5c0,0.4,0.4,1.1,1.1,1.5c1.9,1.5,3.4,3.4,4.1,6c0.6,2.4,1.1,5.2,1.1,8.4v15.1
			c0,6.5-1.7,11.6-5.2,15.5c-3.4,3.9-8.8,5.8-16.4,5.8h-24.3L671.5,65z"/>
	</g>
	<g>
		<rect x="381.3" y="-20.1" fill="none" width="542.6" height="100.8"/>
		<path fill="#00783E" d="M743.5,65.4c0,0.9,0.2,1.5,0.4,1.9s0.6,0.6,1.1,1.1c0.6,0.4,1.5,1.3,2.2,2.2c0.6,0.9,1.1,2.2,1.1,3.7v5.6
			h-24.5v-5.6c0-1.5,0.4-2.8,1.1-3.7c0.6-0.9,1.5-1.7,2.2-2.2c0.4-0.4,0.6-0.6,0.9-1.1c0.2-0.4,0.4-0.9,0.4-1.5v-0.2v-70
			c0-0.9-0.2-1.5-0.4-1.9s-0.6-0.6-0.9-1.1c-0.6-0.4-1.5-1.3-2.2-2.2c-0.6-0.9-1.1-2.2-1.1-3.7v-5.5h24.5v5.6c0,1.5-0.4,2.8-1.1,3.7
			c-0.6,0.9-1.5,1.7-2.2,2.2c-0.4,0.4-0.9,0.6-1.1,1.1c-0.2,0.4-0.4,0.9-0.4,1.9V65.4z"/>
	</g>
	<g>
		<rect x="381.3" y="-20.1" fill="none" width="542.6" height="100.8"/>
		<path fill="#00783E" d="M787,2.3c0-2.8-0.9-4.7-2.4-6.2s-3.4-2.2-5.6-2.2h-5.2c-1.1,0-1.5,0.6-1.5,1.9v25.9c0,0.6,0.2,1.3,0.4,1.5
			s0.6,0.4,1.1,0.4h6.7c2.8,0,4.5-0.6,5.4-2.2c0.9-1.5,1.3-3.4,1.3-6V2.3H787z M803.5,67.1c0.6,0.4,1.3,1.1,1.9,1.9
			c0.4,0.9,0.9,1.9,0.9,3.4v7.1h-12.7c-2.4,0-4.1-0.6-5.2-2.2c-1.1-1.5-1.7-3-1.7-5V43.4c0-2.6-0.4-4.5-1.5-5.6
			c-1.1-1.3-2.8-1.9-5.6-1.9H774c-1.1,0-1.7,0.6-1.7,1.9v27.6c0,0.9,0.2,1.5,0.4,1.9s0.6,0.6,1.1,0.9c0.6,0.4,1.5,1.3,2.2,2.2
			c0.6,0.9,1.1,2.2,1.1,3.7v5.6h-24.3v-5.6c0-1.5,0.4-2.8,1.1-3.7c0.6-0.9,1.5-1.7,2.2-2.2c0.4-0.2,0.6-0.6,0.9-0.9
			c0.2-0.4,0.4-0.9,0.4-1.7v-70v-1.7c0-0.4-0.2-0.6-0.6-0.9c-0.6-0.4-1.5-1.1-2.4-2.2c-0.9-0.9-1.3-2.4-1.3-4.1v-5.5h27.8
			c3.2,0,6.2,0.6,8.8,1.7s5,2.6,6.9,4.5s3.2,4.3,4.3,6.9s1.5,5.6,1.5,8.8v12.1c0,2.8-0.4,5.4-1.3,7.8c-0.9,2.4-2.2,4.3-3.9,5.8
			c-1.1,0.9-1.1,1.7,0.2,2.6c1.9,1.5,3.2,3.7,3.9,6.2c0.6,2.6,0.9,5.6,0.9,8.8v18.1c0,0.9,0.2,1.3,0.4,1.7
			C802.9,66.7,803.1,66.9,803.5,67.1"/>
	</g>
	<g>
		<rect x="381.3" y="-20.1" fill="none" width="542.6" height="100.8"/>
		<path fill="#00783E" d="M834.8,80.7c-3.2,0-6.2-0.4-9.3-1.5c-2.8-0.9-5.4-2.4-7.5-4.1c-2.2-1.7-3.9-4.1-5.2-6.7s-1.9-5.6-1.9-9V1
			c0-3.2,0.6-6.2,1.9-9c1.3-2.6,3-5,5.2-6.7s4.7-3.2,7.5-4.1s6-1.5,9.3-1.5c3.2,0,6.2,0.4,9,1.5c2.8,0.9,5.4,2.4,7.5,4.1
			s3.9,4.1,5.2,6.7s1.9,5.6,1.9,9v11.2h-8c-2.2,0-4.1-0.6-5.6-1.9s-2.4-3-2.4-5.2v-5c0-1.7-0.9-3.2-2.4-5s-3.4-2.4-5.8-2.4
			c-2.4,0-4.3,0.9-5.8,2.4c-1.5,1.7-2.2,3.2-2.2,5v61.4c0,1.5,0.9,2.8,2.4,4.3s3.7,2.2,6,2.2c1.3,0,2.4-0.2,3.4-0.6
			c1.1-0.4,1.9-1.1,2.6-1.7c0.6-0.6,1.3-1.5,1.7-2.2c0.4-0.9,0.6-1.5,0.6-2.4v-5.2c0-1.9,0.6-3.9,1.7-5.2c1.3-1.5,3-2.2,5.2-2.2h8.4
			v11c0,3.2-0.6,6.2-1.9,9c-1.3,2.6-3,5-5.2,6.7s-4.7,3.2-7.5,4.1S838,80.7,834.8,80.7"/>
	</g>
	<g>
		<rect x="381.3" y="-20.1" fill="none" width="542.6" height="100.8"/>
		<path fill="#00783E" d="M919.2-13.2L919.2-13.2c0,2.4-1.1,4.3-3,6c-0.4,0.2-0.6,0.4-0.9,0.9c-0.2,0.2-0.4,0.6-0.4,1.3v0.4v70
			c0,0.9,0.2,1.5,0.4,1.9s0.6,0.6,1.1,1.1c0.6,0.4,1.3,1.3,1.9,2.2c0.6,0.9,1.1,2.2,1.1,3.7v5.6h-24.5v-5.6c0-1.5,0.4-2.8,1.1-3.7
			c0.6-0.9,1.5-1.7,2.2-2.2c0.4-0.4,0.9-0.6,1.1-1.1c0.2-0.2,0.4-0.9,0.4-1.5V36.5c0-1.3-0.6-1.9-1.9-1.9h-12.9
			c-0.4,0-1.1,0.2-1.3,0.4c-0.4,0.4-0.6,0.9-0.6,1.3v28.6c0,0.9,0.2,1.3,0.4,1.7c0.2,0.4,0.6,0.6,0.9,1.1c0.6,0.4,1.5,1.3,2.2,2.2
			c0.6,0.9,1.1,2.2,1.1,3.7v5.6h-24.3v-5.6c0-1.5,0.4-2.8,1.1-3.7c0.6-0.9,1.5-1.7,2.2-2.2c0.4-0.4,0.9-0.6,1.1-1.1
			c0.2-0.4,0.4-0.9,0.4-1.7V-4.4c0-0.9-0.2-1.5-0.4-1.9s-0.6-0.6-1.1-1.1c-1.9-1.3-3-3.2-3.2-5.8v-5.6h24.3v0.2v5.6v0.2
			c0,1.1-0.2,2.2-0.9,3.2c-0.6,1.1-1.3,1.9-2.4,2.6c-0.4,0.4-0.6,0.6-0.9,1.1c-0.2,0.2-0.4,0.9-0.4,1.5v24.8c0,0.6,0.2,1.3,0.6,1.5
			c0.4,0.2,0.9,0.4,1.3,0.4h13.1c0.6,0,1.1-0.2,1.3-0.6s0.4-0.9,0.4-1.3V-4.4c0-0.9-0.2-1.5-0.4-1.9s-0.6-0.6-1.1-1.1
			c-1.9-1.5-3-3.2-3.2-5.8v-5.6h24.5v5.6H919.2z"/>
	</g>
	<g>
		<rect x="381.3" y="-20.1" fill="none" width="542.6" height="100.8"/>
		<path d="M695.3,20.8c0,0.9,0.4,1.5,1.5,1.5h6c2.8,0,4.5-0.9,5.2-2.4c0.6-1.5,1.1-3.9,1.1-6.9V2c0-3-0.4-5.2-1.1-6.2
			s-2.4-1.7-5.2-1.7h-6c-0.9,0-1.5,0.4-1.5,1.5V20.8z M710.5,44.1v-4.3c0-1.3-0.2-2.4-0.4-3.2c-0.2-0.9-0.6-1.5-1.5-1.9
			c-0.6-0.4-1.7-0.6-3.2-0.6h-8.2c-1.3,0-1.9,0.6-1.9,1.9v29.7c0,1.3,0.4,1.9,1.5,1.9h7.1c2.8,0,4.5-0.6,5.2-1.9
			c0.6-1.3,1.1-3.4,1.1-6.5V44.1H710.5z M679.9,65V-4.2c0-1.5-0.4-2.4-1.5-2.8c-0.9-0.4-1.5-1.1-2.2-2.2c-0.4-1.1-0.9-2.6-0.9-4.3
			v-5.3h27.3c7.5,0,12.9,1.9,16.4,5.6c3.4,3.7,5.2,8.8,5.2,15.3v11.4c0,2.8-0.2,5.2-0.9,7.3c-0.6,2.2-1.7,3.9-3.2,5.4
			c-0.4,0.4-0.9,0.9-0.9,1.5c0,0.4,0.4,1.1,1.1,1.5c1.9,1.5,3.4,3.4,4.1,6c0.6,2.4,1.1,5.2,1.1,8.4v15.1c0,6.5-1.7,11.6-5.2,15.5
			c-3.4,3.9-8.8,5.8-16.4,5.8h-24.1L679.9,65L679.9,65z"/>
	</g>
	<g>
		<rect x="381.3" y="-20.1" fill="none" width="542.6" height="100.8"/>
		<path d="M752,65.4c0,0.9,0.2,1.5,0.4,1.9s0.6,0.6,1.1,1.1c0.6,0.4,1.5,1.3,2.2,2.2c0.6,0.9,1.1,2.2,1.1,3.7v5.6h-24.6v-5.6
			c0-1.5,0.4-2.8,1.1-3.7c0.6-0.9,1.5-1.7,2.2-2.2c0.4-0.4,0.6-0.6,0.9-1.1c0.2-0.4,0.4-0.9,0.4-1.5v-0.2v-70c0-0.9-0.2-1.5-0.4-1.9
			s-0.6-0.6-0.9-1.1c-0.6-0.4-1.5-1.3-2.2-2.2c-0.6-0.9-1.1-2.2-1.1-3.7v-5.5h24.5v5.6c0,1.5-0.4,2.8-1.1,3.7
			c-0.6,0.9-1.5,1.7-2.2,2.2c-0.4,0.4-0.9,0.6-1.1,1.1c-0.2,0.4-0.4,0.9-0.4,1.9L752,65.4C751.9,65.4,752,65.4,752,65.4z"/>
	</g>
	<g>
		<rect x="381.3" y="-20.1" fill="none" width="542.6" height="100.8"/>
		<path d="M795.5,2.3c0-2.8-0.9-4.7-2.4-6.2s-3.4-2.2-5.6-2.2h-5.2c-1.1,0-1.5,0.6-1.5,1.9v25.9c0,0.6,0.2,1.3,0.4,1.5
			s0.6,0.4,1.1,0.4h6.7c2.8,0,4.5-0.6,5.4-2.2c0.9-1.5,1.3-3.4,1.3-6V2.3H795.5z M812.1,67.1c0.6,0.4,1.3,1.1,1.9,1.9
			c0.4,0.9,0.9,1.9,0.9,3.4v7.1h-12.7c-2.4,0-4.1-0.6-5.2-2.2c-1.1-1.5-1.7-3-1.7-5V43.4c0-2.6-0.4-4.5-1.5-5.6
			c-1.1-1.3-2.8-1.9-5.6-1.9h-5.6c-1.1,0-1.7,0.6-1.7,1.9v27.6c0,0.9,0.2,1.5,0.4,1.9s0.6,0.6,1.1,0.9c0.6,0.4,1.5,1.3,2.2,2.2
			c0.6,0.9,1.1,2.2,1.1,3.7v5.6h-24.3v-5.6c0-1.5,0.4-2.8,1.1-3.7c0.6-0.9,1.5-1.7,2.2-2.2c0.4-0.2,0.6-0.6,0.9-0.9
			c0.2-0.4,0.4-0.9,0.4-1.7v-70v-1.7c0-0.4-0.2-0.6-0.6-0.9c-0.6-0.4-1.5-1.1-2.4-2.2c-0.9-0.9-1.3-2.4-1.3-4.1v-5.5h27.8
			c3.2,0,6.2,0.6,8.8,1.7s5,2.6,6.9,4.5s3.2,4.3,4.3,6.9s1.5,5.6,1.5,8.8v12.1c0,2.8-0.4,5.4-1.3,7.8c-0.9,2.4-2.2,4.3-3.9,5.8
			c-1.1,0.9-1.1,1.7,0.2,2.6c1.9,1.5,3.2,3.7,3.9,6.2c0.6,2.6,0.9,5.6,0.9,8.8v18.1c0,0.9,0.2,1.3,0.4,1.7
			C811.2,66.7,811.7,66.9,812.1,67.1"/>
	</g>
	<g>
		<rect x="381.3" y="-20.1" fill="none" width="542.6" height="100.8"/>
		<path d="M843.1,80.7c-3.2,0-6.2-0.4-9.3-1.5c-2.8-0.9-5.4-2.4-7.5-4.1c-2.2-1.7-3.9-4.1-5.2-6.7s-1.9-5.6-1.9-9V1
			c0-3.2,0.6-6.2,1.9-9c1.3-2.6,3-5,5.2-6.7s4.7-3.2,7.5-4.1s6-1.5,9.3-1.5c3.2,0,6.2,0.4,9,1.5c2.8,0.9,5.4,2.4,7.5,4.1
			s3.9,4.1,5.2,6.7s1.9,5.6,1.9,9v11.2h-8c-2.2,0-4.1-0.6-5.6-1.9s-2.4-3-2.4-5.2v-5c0-1.7-0.9-3.2-2.4-5c-1.5-1.7-3.4-2.4-5.8-2.4
			c-2.4,0-4.3,0.9-5.8,2.4c-1.5,1.7-2.2,3.2-2.2,5v61.4c0,1.5,0.9,2.8,2.4,4.3s3.7,2.2,6,2.2c1.3,0,2.4-0.2,3.4-0.6s1.9-1.1,2.6-1.7
			c0.6-0.6,1.3-1.5,1.7-2.2c0.4-0.9,0.6-1.5,0.6-2.4v-5.2c0-1.9,0.6-3.9,1.7-5.2c1.3-1.5,3-2.2,5.2-2.2h8.4v11c0,3.2-0.6,6.2-1.9,9
			c-1.3,2.6-3,5-5.2,6.7s-4.7,3.2-7.5,4.1C849.4,80.3,846.3,80.7,843.1,80.7"/>
	</g>
	<g>
		<rect x="381.3" y="-20.1" fill="none" width="542.6" height="100.8"/>
		<path d="M927.5-13.2L927.5-13.2c0,2.4-1.1,4.3-3,6c-0.4,0.2-0.6,0.4-0.9,0.9c-0.2,0.2-0.4,0.6-0.4,1.3v0.4v70
			c0,0.9,0.2,1.5,0.4,1.9s0.6,0.6,1.1,1.1c0.6,0.4,1.3,1.3,1.9,2.2c0.6,0.9,1.1,2.2,1.1,3.7v5.6h-24.5v-5.6c0-1.5,0.4-2.8,1.1-3.7
			c0.6-0.9,1.5-1.7,2.2-2.2c0.4-0.4,0.9-0.6,1.1-1.1c0.2-0.2,0.4-0.9,0.4-1.5V36.5c0-1.3-0.6-1.9-1.9-1.9h-12.9
			c-0.4,0-1.1,0.2-1.3,0.4c-0.4,0.4-0.6,0.9-0.6,1.3v28.6c0,0.9,0.2,1.3,0.4,1.7c0.2,0.4,0.6,0.6,0.9,1.1c0.6,0.4,1.5,1.3,2.2,2.2
			c0.6,0.9,1.1,2.2,1.1,3.7v5.6h-24.3v-5.6c0-1.5,0.4-2.8,1.1-3.7c0.6-0.9,1.5-1.7,2.2-2.2c0.4-0.4,0.9-0.6,1.1-1.1
			c0.2-0.4,0.4-0.9,0.4-1.7V-4.4c0-0.9-0.2-1.5-0.4-1.9s-0.6-0.6-1.1-1.1c-1.9-1.3-3-3.2-3.2-5.8v-5.6h23.5v0.2v5.6v0.2
			c0,1.1-0.2,2.2-0.9,3.2S893-7.7,891.9-7c-0.4,0.4-0.6,0.6-0.9,1.1c-0.2,0.2-0.4,0.9-0.4,1.5v24.8c0,0.6,0.2,1.3,0.6,1.5
			c0.4,0.2,0.9,0.4,1.3,0.4h13.1c0.6,0,1.1-0.2,1.3-0.6s0.4-0.9,0.4-1.3V-4.4c0-0.9-0.2-1.5-0.4-1.9s-0.6-0.6-1.1-1.1
			c-1.9-1.5-3-3.2-3.2-5.8v-5.6h24.8v5.6H927.5z"/>
	</g>
</g>
</svg>
